<svg width="32" height="22" viewBox="0 0 32 22" fill="none" xmlns="http://www.w3.org/2000/svg" xmlns:xlink="http://www.w3.org/1999/xlink">
<path d="M28.719,-0.668L26.932,-0.668C25.946,-0.668 25.146,0.227 25.146,1.332L25.146,18.665C25.146,19.77 25.946,20.665 26.932,20.665L28.719,20.665C29.705,20.665 30.505,19.77 30.505,18.665L30.505,1.332C30.505,0.227 29.705,-0.668 28.719,-0.668ZM18.596,3.998L20.382,3.998C21.369,3.998 22.169,4.893 22.169,5.998L22.169,18.665C22.169,19.769 21.369,20.665 20.382,20.665L18.596,20.665C17.609,20.665 16.809,19.769 16.809,18.665L16.809,5.998C16.809,4.893 17.609,3.998 18.596,3.998ZM12.046,8.666L10.259,8.666C9.273,8.666 8.473,9.561 8.473,10.666L8.473,18.666C8.473,19.771 9.273,20.666 10.259,20.666L12.046,20.666C13.032,20.666 13.832,19.771 13.832,18.666L13.832,10.666C13.832,9.561 13.032,8.666 12.046,8.666ZM3.709,12.666L1.923,12.666C0.936,12.666 0.137,13.561 0.137,14.666L0.137,18.666C0.137,19.771 0.936,20.666 1.923,20.666L3.709,20.666C4.696,20.666 5.496,19.771 5.496,18.666L5.496,14.666C5.496,13.561 4.696,12.666 3.709,12.666Z" clip-rule="evenodd" fill-rule="evenodd" fill="#FFFFFF"/>
</svg>
