<svg width="32" height="40" viewBox="0 0 32 40" fill="none" xmlns="http://www.w3.org/2000/svg" xmlns:xlink="http://www.w3.org/1999/xlink">
<path d="M15.985,3.063C13.961,3.055 12.024,3.861 10.595,5.297C9.164,6.735 8.36,8.689 8.36,10.719C8.352,13.821 10.204,16.625 13.055,17.821C15.898,19.009 19.18,18.361 21.367,16.165C23.547,13.977 24.203,10.673 23.025,7.805C21.845,4.939 19.063,3.063 15.985,3.063M11.93,0.813C15.907,-0.843 20.493,0.079 23.53,3.149C26.578,6.211 27.484,10.829 25.828,14.829C24.181,18.837 20.288,21.447 15.985,21.439C10.11,21.423 5.352,16.633 5.352,10.719L5.369,10.259C5.541,6.105 8.095,2.415 11.93,0.813M11.767,25.533C14.64,25.291 17.532,25.291 20.406,25.533C21.976,25.643 23.538,25.869 25.07,26.221C28.39,26.893 30.562,28.213 31.469,30.149C32.194,31.751 32.173,33.603 31.414,35.197C30.492,37.135 28.32,38.455 24.944,39.143C23.423,39.485 21.866,39.705 20.296,39.807C18.57,40.001 17.102,40.001 15.735,40.001L15.197,40.001C14.423,39.915 13.836,39.259 13.836,38.479C13.836,37.697 14.423,37.041 15.197,36.955L16.39,36.955C17.586,36.939 18.796,36.885 20,36.783C21.423,36.689 22.837,36.485 24.235,36.181C26.625,35.657 28.133,34.899 28.603,33.893C28.969,33.127 28.969,32.235 28.603,31.471C28.133,30.447 26.625,29.657 24.281,29.181C22.867,28.861 21.431,28.649 19.985,28.563C17.282,28.313 14.563,28.313 11.86,28.563C10.43,28.657 9.008,28.853 7.61,29.157C5.211,29.689 3.727,30.447 3.242,31.447C3.063,31.829 2.977,32.243 2.977,32.665C2.977,33.087 3.063,33.509 3.242,33.893C4.07,35.041 5.336,35.783 6.735,35.955L6.939,36.009C7.398,36.165 7.758,36.541 7.898,37.025C8.063,37.563 7.907,38.157 7.501,38.557C7.095,38.955 6.501,39.087 5.968,38.907C3.711,38.541 1.735,37.189 0.563,35.213C-0.188,33.619 -0.188,31.759 0.563,30.165C1.492,28.173 3.657,26.893 7.001,26.205C8.57,25.861 10.164,25.643 11.767,25.533Z" clip-rule="evenodd" fill-rule="evenodd" fill="#202244"/>
</svg>
