<svg width="36" height="40" viewBox="0 0 36 40" fill="none" xmlns="http://www.w3.org/2000/svg" xmlns:xlink="http://www.w3.org/1999/xlink">
<path d="M16.266,10.086C17,10.164 17.554,10.796 17.554,11.54C17.554,12.29 17,12.914 16.266,13L10.782,13C10.046,12.914 9.492,12.29 9.492,11.54C9.492,10.796 10.046,10.164 10.782,10.086L16.266,10.086ZM25.188,18.546C25.734,18.484 26.274,18.742 26.57,19.218C26.86,19.696 26.86,20.304 26.57,20.782C26.274,21.258 25.734,21.516 25.188,21.454L10.766,21.454C10.032,21.376 9.476,20.75 9.476,20C9.476,19.25 10.032,18.624 10.766,18.546L25.188,18.546ZM25.188,27.024C25.976,27.024 26.61,27.672 26.61,28.468C26.61,29.266 25.976,29.914 25.188,29.914L10.766,29.914C9.976,29.914 9.336,29.266 9.336,28.468C9.336,27.672 9.976,27.024 10.766,27.024L25.188,27.024ZM25.704,0C32.134,0 35.984,3.906 36,10.422L36,29.578C36,36.094 32.172,40 25.726,40L20.008,40C19.282,39.922 18.726,39.29 18.726,38.546C18.726,37.796 19.282,37.172 20.008,37.086L25.704,37.086C30.618,37.086 33.094,34.562 33.094,29.578L33.094,10.422C33.094,5.438 30.618,2.914 25.704,2.914L10.274,2.914C5.368,2.914 2.876,5.438 2.876,10.422L2.876,29.578C2.876,34.562 5.368,37.086 10.274,37.086C11.008,37.172 11.562,37.796 11.562,38.546C11.562,39.29 11.008,39.922 10.274,40C3.852,40 0,36.094 0,29.578L0,10.422C0,3.882 3.852,0 10.274,0L25.704,0Z" clip-rule="evenodd" fill-rule="evenodd" fill="#202244"/>
</svg>
