<svg width="40" height="42" viewBox="0 0 40 42" fill="none" xmlns="http://www.w3.org/2000/svg" xmlns:xlink="http://www.w3.org/1999/xlink">
<path d="M37.69,37.212L31.005,30.494L30.854,30.252C30.558,29.946 30.163,29.782 29.745,29.782C29.335,29.782 28.932,29.946 28.645,30.252C22.963,35.61 14.213,35.9 8.189,30.93C2.165,25.954 0.746,17.266 4.87,10.62C8.994,3.976 17.381,1.44 24.466,4.69C31.554,7.94 35.145,15.968 32.852,23.454C32.693,24.002 32.821,24.588 33.208,25.002C33.589,25.416 34.167,25.588 34.713,25.462C35.26,25.338 35.701,24.922 35.868,24.384C38.602,15.502 34.47,5.94 26.146,1.882C17.82,-2.17 7.794,0.502 2.562,8.172C-2.673,15.844 -1.549,26.204 5.212,32.564C11.963,38.916 22.325,39.352 29.586,33.588L35.503,39.54C36.111,40.158 37.097,40.158 37.714,39.54C38.32,38.922 38.32,37.922 37.714,37.298L37.69,37.212Z" clip-rule="evenodd" fill-rule="evenodd" fill="#777777"/>
</svg>
