<svg width="38" height="36" viewBox="0 0 38 36" fill="none" xmlns="http://www.w3.org/2000/svg" xmlns:xlink="http://www.w3.org/1999/xlink">
<path d="M18.917,33.429C17.535,33.429 16.417,32.278 16.417,30.857C16.417,29.436 17.535,28.286 18.917,28.286C20.298,28.286 21.417,29.436 21.417,30.857C21.417,32.278 20.298,33.429 18.917,33.429M36.417,29.571L23.741,29.571C23.179,27.301 21.192,25.714 18.917,25.714C16.642,25.714 14.654,27.301 14.093,29.571L1.417,29.571C0.728,29.571 0.167,30.149 0.167,30.857C0.167,31.566 0.728,32.143 1.417,32.143L14.093,32.143C14.654,34.413 16.642,36 18.917,36C21.192,36 23.179,34.413 23.741,32.143L36.417,32.143C37.106,32.143 37.667,31.566 37.667,30.857C37.667,30.149 37.106,29.571 36.417,29.571M31.417,20.571C30.036,20.571 28.917,19.421 28.917,18C28.917,16.579 30.036,15.429 31.417,15.429C32.798,15.429 33.917,16.579 33.917,18C33.917,19.421 32.798,20.571 31.417,20.571M36.417,16.714L36.241,16.714C35.679,14.444 33.692,12.857 31.417,12.857C29.142,12.857 27.154,14.444 26.593,16.714L1.417,16.714C0.728,16.714 0.167,17.292 0.167,18C0.167,18.708 0.728,19.286 1.417,19.286L26.593,19.286C27.154,21.556 29.142,23.143 31.417,23.143C33.692,23.143 35.679,21.556 36.241,19.286L36.417,19.286C37.106,19.286 37.667,18.708 37.667,18C37.667,17.292 37.106,16.714 36.417,16.714M6.417,2.571C7.798,2.571 8.917,3.722 8.917,5.143C8.917,6.564 7.798,7.714 6.417,7.714C5.036,7.714 3.917,6.564 3.917,5.143C3.917,3.722 5.036,2.571 6.417,2.571M1.417,6.429L1.593,6.429C2.154,8.699 4.142,10.286 6.417,10.286C8.692,10.286 10.679,8.699 11.24,6.429L36.417,6.429C37.106,6.429 37.667,5.851 37.667,5.143C37.667,4.434 37.106,3.857 36.417,3.857L11.24,3.857C10.679,1.587 8.692,0 6.417,0C4.142,0 2.154,1.587 1.593,3.857L1.417,3.857C0.728,3.857 0.167,4.434 0.167,5.143C0.167,5.851 0.728,6.429 1.417,6.429Z" clip-rule="evenodd" fill-rule="evenodd" fill="#E8F1FF"/>
</svg>
