<svg width="68" height="68" viewBox="0 0 68 68" fill="none" xmlns="http://www.w3.org/2000/svg" xmlns:xlink="http://www.w3.org/1999/xlink">
<path d="M63.31,11.138L4.69,11.138C2.423,11.138 0.586,12.975 0.586,15.241L0.586,52.759C0.586,55.025 2.423,56.862 4.69,56.862L63.31,56.862C65.577,56.862 67.414,55.025 67.414,52.759L67.414,15.241C67.414,12.975 65.577,11.138 63.31,11.138Z" fill="#000000" stroke="#F3F3F3" stroke-width="1" stroke-miterlimit="3.999327"/>
<path d="M32.731,38.828L32.731,33.539L35.592,33.538C36.771,33.539 37.763,33.168 38.566,32.426C39.378,31.722 39.831,30.71 39.808,29.654C39.824,28.605 39.371,27.6 38.566,26.898C37.77,26.152 36.699,25.745 35.592,25.767L30.999,25.767L30.999,38.828L32.731,38.828ZM32.731,31.934L32.731,27.375L35.635,27.374C36.282,27.356 36.906,27.609 37.348,28.067C37.793,28.486 38.044,29.062 38.044,29.663C38.044,30.264 37.793,30.84 37.348,31.259C36.901,31.708 36.279,31.953 35.635,31.934L32.731,31.934Z" clip-rule="evenodd" fill-rule="evenodd" fill="#FFFFFF"/>
<path d="M46.83,30.594C46.089,29.931 45.079,29.6 43.799,29.6C42.155,29.6 40.913,30.184 40.074,31.351L41.599,32.282C42.163,31.491 42.928,31.096 43.896,31.096C44.512,31.089 45.109,31.307 45.567,31.707C46.024,32.073 46.286,32.618 46.283,33.192L46.283,33.576C45.617,33.211 44.77,33.029 43.742,33.029C42.537,33.03 41.574,33.304 40.853,33.85C40.131,34.396 39.771,35.131 39.771,36.056C39.755,36.898 40.132,37.702 40.797,38.245C41.481,38.828 42.331,39.12 43.347,39.12C44.538,39.12 45.491,38.609 46.208,37.588L46.284,37.588L46.284,38.828L47.94,38.828L47.94,33.321C47.941,32.166 47.571,31.257 46.83,30.594ZM42.133,37.187C41.77,36.934 41.556,36.526 41.558,36.093C41.558,35.606 41.794,35.201 42.268,34.867C42.738,34.538 43.325,34.374 44.028,34.374C44.994,34.374 45.747,34.582 46.287,34.999C46.287,35.704 46,36.318 45.426,36.841C44.91,37.342 44.209,37.623 43.478,37.625C42.991,37.633 42.516,37.479 42.133,37.187Z" clip-rule="evenodd" fill-rule="evenodd" fill="#FFFFFF"/>
<path d="M57.448,29.892L51.666,42.768L49.878,42.768L52.024,38.262L48.222,29.892L50.104,29.892L52.852,36.311L52.89,36.311L55.563,29.892L57.448,29.892Z" clip-rule="evenodd" fill-rule="evenodd" fill="#FFFFFF"/>
<path d="M25.733,32.399C25.734,31.888 25.689,31.377 25.6,30.874L18.296,30.874L18.296,33.763L22.479,33.763C22.306,34.696 21.748,35.52 20.932,36.044L20.932,37.92L23.429,37.92C24.891,36.614 25.733,34.683 25.733,32.399Z" clip-rule="evenodd" fill-rule="evenodd" fill="#4285F4"/>
<path d="M18.296,39.732C20.386,39.732 22.146,39.067 23.429,37.921L20.932,36.045C20.238,36.501 19.343,36.762 18.296,36.762C16.276,36.762 14.562,35.442 13.949,33.664L11.377,33.664L11.377,35.598C12.691,38.132 15.369,39.732 18.296,39.732Z" clip-rule="evenodd" fill-rule="evenodd" fill="#34A853"/>
<path d="M13.948,33.665C13.624,32.733 13.624,31.724 13.948,30.792L13.948,28.859L11.377,28.859C10.277,30.979 10.277,33.478 11.377,35.598L13.948,33.665Z" clip-rule="evenodd" fill-rule="evenodd" fill="#FBBC04"/>
<path d="M18.296,27.695C19.401,27.677 20.468,28.082 21.267,28.821L23.477,26.679C22.076,25.403 20.219,24.703 18.296,24.725C15.369,24.725 12.691,26.325 11.377,28.859L13.949,30.792C14.562,29.014 16.276,27.695 18.296,27.695Z" clip-rule="evenodd" fill-rule="evenodd" fill="#EA4335"/>
</svg>
