<svg width="38" height="36" viewBox="0 0 38 36" fill="none" xmlns="http://www.w3.org/2000/svg" xmlns:xlink="http://www.w3.org/1999/xlink">
<path d="M34.12,22.693C33.734,23.534 33.856,24.259 33.983,25.13C34.327,27.52 32.962,29.707 30.656,30.392C30.027,30.579 29.293,30.612 28.698,30.842C27.89,31.156 27.36,31.774 26.984,32.547C26.824,32.875 26.65,33.176 26.46,33.45C25.21,35.253 22.953,35.938 20.913,35.166C20.614,35.053 20.291,34.904 19.942,34.72C18.936,34.188 17.94,34.2 16.963,34.692C16.714,34.818 16.463,34.938 16.21,35.052C14.091,36.008 11.667,35.304 10.371,33.411C10.049,32.94 9.83,32.4 9.514,31.923C9.016,31.171 8.242,30.764 7.349,30.62C6.864,30.543 6.385,30.464 5.933,30.301C4.004,29.604 2.771,27.794 2.821,25.758C2.829,25.413 2.876,24.986 2.961,24.478C3.095,23.679 2.948,22.951 2.519,22.294C2.177,21.767 1.622,21.331 1.235,20.83C-0.293,18.853 -0.035,16.218 1.745,14.484C2.448,13.8 2.962,13.124 3,12.096C3.022,11.479 2.828,10.762 2.817,10.241C2.795,9.255 3.009,8.387 3.457,7.637C4.199,6.397 5.377,5.605 6.799,5.364C7.239,5.29 7.736,5.225 8.145,5.063C8.913,4.758 9.457,4.19 9.819,3.449C9.983,3.115 10.156,2.81 10.338,2.534C11.538,0.716 13.763,-0.028 15.82,0.688C16.151,0.804 16.527,0.972 16.947,1.194C17.577,1.528 18.221,1.645 18.878,1.544C19.707,1.416 20.408,0.876 21.212,0.629C23.058,0.066 24.992,0.655 26.222,2.129C26.583,2.562 26.852,3.091 27.118,3.598C27.629,4.568 28.433,5.1 29.506,5.272C29.736,5.308 29.963,5.348 30.19,5.391C32.679,5.871 34.278,8.088 34.012,10.598C33.986,10.841 33.951,11.089 33.908,11.34C33.777,12.105 33.88,12.869 34.295,13.527C34.663,14.113 35.239,14.56 35.667,15.124C37.077,16.983 36.896,19.576 35.283,21.235C34.853,21.677 34.393,22.1 34.12,22.693ZM20.825,33.248C21.133,33.415 21.425,33.543 21.701,33.632C23.113,34.089 24.56,33.428 25.262,32.144C25.509,31.693 25.732,31.222 26.026,30.82C26.595,30.042 27.352,29.489 28.296,29.161C29.075,28.892 29.938,28.924 30.652,28.565C31.459,28.16 31.985,27.519 32.231,26.642C32.495,25.702 32.122,24.795 32.139,23.851C32.157,22.866 32.457,21.971 33.037,21.166C33.338,20.749 33.724,20.401 34.079,20.024C35.054,18.986 35.183,17.465 34.398,16.281C34.175,15.946 33.866,15.653 33.577,15.36C32.478,14.251 31.949,12.795 32.193,11.222C32.231,10.978 32.268,10.718 32.303,10.443C32.516,8.798 31.449,7.362 29.814,7.06C29.574,7.016 29.347,6.976 29.132,6.942C27.67,6.706 26.422,5.87 25.697,4.564C25.425,4.076 25.196,3.559 24.85,3.154C24.092,2.269 22.871,1.92 21.764,2.245C21.149,2.426 20.575,2.822 19.949,3.035C18.588,3.497 17.278,3.313 16.021,2.644C15.733,2.49 15.465,2.372 15.215,2.29C14.162,1.945 13.191,2.134 12.3,2.857C11.797,3.266 11.519,3.893 11.211,4.466C10.52,5.751 9.371,6.619 7.946,6.901C7.349,7.019 6.746,7.071 6.212,7.328C5.233,7.798 4.593,8.766 4.529,9.85C4.504,10.281 4.59,10.731 4.655,11.16C4.865,12.56 4.524,13.893 3.623,14.98C3.223,15.461 2.71,15.859 2.383,16.393C1.764,17.403 1.808,18.673 2.475,19.641C2.706,19.978 3.015,20.263 3.298,20.557C4.38,21.671 4.885,23.061 4.67,24.623C4.6,25.135 4.485,25.688 4.541,26.178C4.695,27.522 5.687,28.622 7.03,28.831C7.456,28.897 7.85,28.975 8.211,29.065C9.313,29.337 10.208,29.955 10.896,30.917C11.233,31.386 11.457,31.947 11.772,32.435C12.1,32.941 12.561,33.316 13.154,33.56C13.829,33.837 14.546,33.845 15.305,33.587C15.782,33.424 16.375,33.039 16.947,32.849C18.276,32.41 19.601,32.585 20.825,33.248Z" fill="#797979"/>
<path d="M18.582,12.053C18.582,13.016 18.199,13.94 17.518,14.621C16.837,15.302 15.914,15.684 14.951,15.684C14.474,15.684 14.002,15.59 13.561,15.408C13.121,15.226 12.72,14.958 12.383,14.621C12.046,14.284 11.778,13.883 11.596,13.443C11.413,13.002 11.32,12.53 11.32,12.053C11.32,11.577 11.413,11.104 11.596,10.664C11.778,10.223 12.046,9.823 12.383,9.486C12.72,9.149 13.121,8.881 13.561,8.699C14.002,8.516 14.474,8.422 14.951,8.422C15.914,8.422 16.837,8.805 17.518,9.486C18.199,10.167 18.582,11.09 18.582,12.053ZM16.872,12.052C16.872,11.542 16.67,11.053 16.309,10.693C15.949,10.333 15.46,10.13 14.951,10.13C14.441,10.13 13.952,10.333 13.592,10.693C13.231,11.053 13.029,11.542 13.029,12.052C13.029,12.561 13.231,13.05 13.592,13.41C13.952,13.771 14.441,13.973 14.951,13.973C15.46,13.973 15.949,13.771 16.309,13.41C16.67,13.05 16.872,12.561 16.872,12.052Z" fill="#797979"/>
<path d="M18.434,8.332L18.42,8.332C17.953,8.332 17.574,8.711 17.574,9.179L17.574,26.718C17.574,27.185 17.953,27.564 18.42,27.564L18.434,27.564C18.901,27.564 19.281,27.185 19.281,26.718L19.281,9.179C19.281,8.711 18.901,8.332 18.434,8.332Z" transform="rotate(90 18.427 17.948)" fill="#797979"/>
<path d="M25.537,23.845C25.537,24.809 25.155,25.732 24.474,26.413C23.793,27.095 22.869,27.477 21.906,27.477C20.942,27.477 20.019,27.095 19.337,26.413C18.656,25.732 18.274,24.809 18.274,23.845C18.274,22.882 18.656,21.958 19.337,21.277C20.019,20.596 20.942,20.214 21.906,20.214C22.869,20.214 23.793,20.596 24.474,21.277C25.155,21.958 25.537,22.882 25.537,23.845ZM23.826,23.845C23.826,23.335 23.624,22.846 23.263,22.486C22.903,22.125 22.414,21.923 21.905,21.923C21.395,21.923 20.906,22.125 20.546,22.486C20.186,22.846 19.983,23.335 19.983,23.845C19.983,24.097 20.033,24.347 20.129,24.58C20.226,24.813 20.368,25.025 20.546,25.203C20.724,25.382 20.936,25.523 21.169,25.62C21.402,25.716 21.652,25.766 21.905,25.766C22.157,25.766 22.407,25.716 22.64,25.62C22.873,25.523 23.085,25.382 23.263,25.203C23.442,25.025 23.583,24.813 23.68,24.58C23.777,24.347 23.826,24.097 23.826,23.845Z" fill="#797979"/>
</svg>
