<svg width="28" height="34" viewBox="0 0 28 34" fill="none" xmlns="http://www.w3.org/2000/svg" xmlns:xlink="http://www.w3.org/1999/xlink">
<path d="M7.448,10.048L8.721,9.569L8.721,9.569L7.448,10.048ZM8.721,9.569C8.495,8.967 8.39,8.327 8.411,7.685L5.692,7.595C5.658,8.594 5.823,9.59 6.175,10.526L8.721,9.569ZM8.411,7.685C8.432,7.042 8.58,6.41 8.845,5.825L6.367,4.701C5.954,5.612 5.725,6.595 5.692,7.595L8.411,7.685ZM8.845,5.825C9.111,5.24 9.489,4.712 9.958,4.273L8.099,2.287C7.369,2.97 6.78,3.791 6.367,4.701L8.845,5.825ZM9.958,4.273C10.427,3.834 10.978,3.492 11.58,3.265L10.623,0.719C9.686,1.071 8.829,1.603 8.099,2.287L9.958,4.273ZM11.58,3.265C12.182,3.039 12.822,2.934 13.464,2.955L13.554,0.236C12.555,0.203 11.559,0.367 10.623,0.719L11.58,3.265ZM13.464,2.955C14.107,2.976 14.739,3.124 15.324,3.389L16.448,0.911C15.537,0.498 14.554,0.269 13.554,0.236L13.464,2.955ZM15.324,3.389C15.909,3.655 16.436,4.033 16.876,4.502L18.862,2.643C18.179,1.913 17.358,1.324 16.448,0.911L15.324,3.389ZM16.876,4.502C17.315,4.971 17.657,5.523 17.884,6.124L20.43,5.167C20.078,4.231 19.546,3.373 18.862,2.643L16.876,4.502ZM17.884,6.124C18.11,6.726 18.215,7.366 18.194,8.008L20.913,8.098C20.946,7.099 20.782,6.103 20.43,5.167L17.884,6.124ZM18.194,8.008C18.173,8.651 18.025,9.283 17.76,9.868L20.238,10.992C20.651,10.081 20.88,9.098 20.913,8.098L18.194,8.008ZM17.76,9.868C17.494,10.453 17.116,10.981 16.647,11.42L18.506,13.406C19.236,12.723 19.825,11.902 20.238,10.992L17.76,9.868ZM16.647,11.42C16.178,11.859 15.626,12.201 15.025,12.428L15.982,14.974C16.918,14.622 17.776,14.09 18.506,13.406L16.647,11.42ZM15.025,12.428C14.423,12.654 13.783,12.759 13.141,12.738L13.051,15.457C14.05,15.49 15.046,15.326 15.982,14.974L15.025,12.428ZM13.141,12.738C12.498,12.717 11.866,12.569 11.281,12.304L10.157,14.782C11.068,15.195 12.051,15.424 13.051,15.457L13.141,12.738ZM11.281,12.304C10.696,12.038 10.168,11.66 9.729,11.191L7.743,13.05C8.426,13.78 9.247,14.369 10.157,14.782L11.281,12.304ZM9.729,11.191C9.29,10.722 8.948,10.17 8.721,9.569L6.175,10.526C6.526,11.463 7.059,12.32 7.743,13.05L9.729,11.191Z" fill="#696969"/>
<path d="M24.555,31.302C24.843,31.996 25.639,32.325 26.333,32.037C27.027,31.749 27.356,30.952 27.068,30.259L24.555,31.302ZM5.78,24.717L6.534,25.849L6.534,25.849L5.78,24.717ZM-0.464,30.259C-0.752,30.952 -0.423,31.749 0.271,32.037C0.965,32.325 1.761,31.996 2.049,31.302L-0.464,30.259ZM27.068,30.259C25.94,27.541 24.03,25.219 21.579,23.585L20.07,25.849C22.073,27.185 23.633,29.082 24.555,31.302L27.068,30.259ZM21.579,23.585C19.129,21.952 16.249,21.08 13.302,21.08L13.302,23.801C15.712,23.801 18.067,24.514 20.07,25.849L21.579,23.585ZM13.302,21.08C10.356,21.08 7.475,21.952 5.025,23.585L6.534,25.849C8.537,24.514 10.893,23.801 13.302,23.801L13.302,21.08ZM5.025,23.585C2.575,25.219 0.665,27.541 -0.464,30.259L2.049,31.302C2.971,29.082 4.532,27.185 6.534,25.849L5.025,23.585Z" fill="#696969"/>
</svg>
