<svg width="44" height="50" viewBox="0 0 44 50" fill="none" xmlns="http://www.w3.org/2000/svg" xmlns:xlink="http://www.w3.org/1999/xlink">
<path d="M35.763,3.892C33.456,1.262 29.286,0.135 23.951,0.135L8.467,0.135C7.376,0.135 6.448,0.929 6.278,2.005L-0.169,42.893C-0.298,43.7 0.327,44.43 1.144,44.43L10.703,44.43L13.104,29.203L13.029,29.68C13.2,28.603 14.121,27.81 15.211,27.81L19.753,27.81C28.677,27.81 35.664,24.185 37.705,13.7C37.765,13.39 37.818,13.088 37.863,12.793C37.606,12.657 37.606,12.657 37.863,12.793C38.471,8.918 37.859,6.28 35.763,3.892Z" fill="#27346A"/>
<path d="M16.761,11.397C17.016,11.276 17.3,11.208 17.598,11.208L29.736,11.208C31.174,11.208 32.515,11.302 33.74,11.499C34.091,11.556 34.432,11.62 34.762,11.695C35.093,11.768 35.414,11.851 35.726,11.942C35.882,11.987 36.034,12.034 36.185,12.084C36.787,12.285 37.348,12.519 37.863,12.793C38.471,8.917 37.859,6.28 35.763,3.892C33.455,1.262 29.286,0.135 23.951,0.135L8.466,0.135C7.376,0.135 6.448,0.929 6.278,2.005L-0.169,42.892C-0.298,43.7 0.327,44.429 1.143,44.429L10.703,44.429L15.683,12.844C15.785,12.197 16.202,11.666 16.761,11.397Z" fill="#27346A"/>
<path d="M37.705,13.7C35.664,24.184 28.677,27.81 19.753,27.81L15.209,27.81C14.119,27.81 13.199,28.603 13.029,29.68L10.043,48.613C9.931,49.318 10.477,49.958 11.191,49.958L19.249,49.958C20.202,49.958 21.014,49.263 21.163,48.322L21.241,47.911L22.76,38.286L22.858,37.754C23.007,36.813 23.819,36.119 24.772,36.119L25.978,36.119C33.784,36.119 39.896,32.947 41.682,23.776C42.428,19.943 42.042,16.743 40.07,14.495C39.471,13.815 38.729,13.252 37.863,12.793C37.816,13.09 37.765,13.39 37.705,13.7Z" fill="#2790C3"/>
<path d="M35.727,11.942C35.416,11.851 35.095,11.768 34.764,11.695C34.433,11.622 34.091,11.557 33.741,11.501C32.515,11.302 31.175,11.208 29.736,11.208L17.599,11.208C17.3,11.208 17.016,11.276 16.763,11.399C16.202,11.667 15.787,12.197 15.685,12.846L13.105,29.203L13.031,29.68C13.2,28.603 14.121,27.81 15.211,27.81L19.754,27.81C28.678,27.81 35.665,24.185 37.706,13.7C37.767,13.39 37.818,13.09 37.865,12.793C37.348,12.52 36.788,12.285 36.186,12.085C36.036,12.035 35.883,11.987 35.727,11.942Z" fill="#1F264F"/>
</svg>
