<svg width="394" height="346" viewBox="0 0 394 346" fill="none" xmlns="http://www.w3.org/2000/svg" xmlns:xlink="http://www.w3.org/1999/xlink">
<path d="M330.592,68.938C328.943,68.778 327.476,69.985 327.316,71.634C327.155,73.283 328.362,74.75 330.011,74.91L330.592,68.938ZM390.031,18.685C391.685,18.581 392.941,17.157 392.838,15.503C392.735,13.85 391.31,12.593 389.657,12.696L390.031,18.685ZM330.011,74.91C336.089,75.501 345.421,74.832 353.884,70.846C362.48,66.798 370.2,59.292 372.477,46.458L366.57,45.41C364.688,56.015 358.468,62.055 351.328,65.418C344.055,68.843 335.855,69.45 330.592,68.938L330.011,74.91ZM372.477,46.458C376.523,23.655 386.993,18.874 390.031,18.685L389.657,12.696C382.614,13.136 370.842,21.335 366.57,45.41L372.477,46.458Z" fill="#F3603F"/>
<circle cx="229.391" cy="167.53" r="113.391" fill="#F18231"/>
<g filter="url(#filter201_1847)">
<circle cx="229.588" cy="167.53" r="99.145" stroke="#FFFFFF" stroke-opacity="0.7" stroke-width="2" stroke-miterlimit="3.999327"/>
</g>
<path d="M279.978,142.724C279.978,145.811 278.766,148.792 276.563,150.921L225.348,200.535C223.035,202.664 219.951,203.942 216.757,203.942C213.562,203.942 210.478,202.664 208.276,200.535L182.613,175.728C180.41,173.599 179.198,170.618 179.198,167.53C179.198,164.443 180.52,161.568 182.723,159.332C185.036,157.203 188.01,156.032 191.204,155.925C194.398,155.925 197.372,157.097 199.685,159.226L216.757,175.728L259.492,134.419C261.804,132.29 264.778,131.119 267.972,131.119C271.167,131.225 274.14,132.396 276.453,134.632C278.656,136.761 279.978,139.636 279.978,142.724Z" fill="#FFFFFF"/>
<path d="M315.32,278.039C313.728,277.579 312.065,278.497 311.605,280.089C311.145,281.681 312.063,283.344 313.655,283.804L315.32,278.039ZM339.74,317.235C339.529,318.878 340.69,320.381 342.334,320.592C343.977,320.803 345.48,319.641 345.691,317.998L339.74,317.235ZM313.655,283.804C318.57,285.223 325.858,288.674 331.517,294.289C337.101,299.83 341.007,307.355 339.74,317.235L345.691,317.998C347.247,305.86 342.331,296.567 335.743,290.03C329.228,283.566 320.99,279.677 315.32,278.039L313.655,283.804Z" fill="#F7B23B"/>
<path d="M5.057,247.043C3.507,246.459 1.776,247.243 1.193,248.793C0.609,250.344 1.392,252.074 2.943,252.658L5.057,247.043ZM47.67,203.966L47.541,200.969C46.367,201.019 45.331,201.751 44.889,202.84L47.67,203.966ZM102.146,214.358C102.992,212.934 102.523,211.093 101.098,210.247C99.674,209.401 97.833,209.87 96.987,211.295L102.146,214.358ZM2.943,252.658C11.396,255.842 24.767,258.609 37.495,256.431C50.423,254.219 62.775,246.846 68.246,229.886L62.535,228.044C57.88,242.476 47.658,248.605 36.483,250.517C25.109,252.463 12.848,249.978 5.057,247.043L2.943,252.658ZM68.348,229.47C69.145,224.802 69.196,217.696 66.459,211.693C65.065,208.636 62.913,205.796 59.714,203.793C56.508,201.785 52.469,200.758 47.541,200.969L47.798,206.963C51.731,206.795 54.522,207.621 56.53,208.878C58.546,210.14 59.993,211.975 61,214.182C63.062,218.706 63.113,224.479 62.433,228.461L68.348,229.47ZM44.889,202.84C43.06,207.356 41.651,214.474 44.122,220.697C45.394,223.901 47.671,226.79 51.263,228.837C54.809,230.859 59.465,231.965 65.39,231.965L65.39,225.965C60.177,225.965 56.626,224.988 54.234,223.625C51.887,222.287 50.494,220.488 49.698,218.484C48.034,214.291 48.904,208.909 50.45,205.093L44.889,202.84ZM64.843,231.915C72.96,233.422 91.657,232.024 102.146,214.358L96.987,211.295C88.236,226.034 72.588,227.251 65.938,226.016L64.843,231.915Z" fill="#6E89FA"/>
<circle cx="261.782" cy="333.719" r="10.869" fill="#637BFE"/>
<circle cx="364.53" cy="161.606" r="10.869" stroke="#C05EFD" stroke-width="1" stroke-miterlimit="3.999327"/>
<circle cx="192" cy="11.902" r="11.902" fill="#F18231"/>
<circle cx="225.793" cy="31.992" r="6.286" fill="#F3603F"/>
<circle cx="87.253" cy="124.302" r="11.016" stroke="#F7B23B" stroke-width="1" stroke-miterlimit="3.999327"/>
<circle cx="112.555" cy="297.998" r="12.112" stroke="#F18231" stroke-width="1" stroke-miterlimit="3.999327"/>
<circle cx="227.987" cy="321.255" r="5.787" transform="rotate(360 227.987 321.255)" fill="#F18231"/>
<defs>
<filter id="filter201_1847" x="126.442627" y="64.384705" width="107.145493" height="107.145493" filterUnits="userSpaceOnUse" color-interpolation-filters="sRGB">
<feFlood flood-opacity="0" result="BackgroundImageFix"/>
<feColorMatrix in="SourceAlpha" type="matrix" values="0 0 0 0 0 0 0 0 0 0 0 0 0 0 0 0 0 0 127 0" result="hardAlpha"/>
<feMorphology radius="0" operator="dilate" in="SourceAlpha" result="0dropshadow"/>
<feOffset dx="0" dy="3"/>
<feGaussianBlur stdDeviation="2"/>
<feComposite in2="hardAlpha" operator="out"/>
<feColorMatrix type="matrix" values="0 0 0 0 0 0 0 0 0 0 0 0 0 0 0 0 0 0 0.12 0"/>
<feBlend mode="normal" in2="BackgroundImageFix" result="0dropshadow"/>
<feBlend mode="normal" in="SourceGraphic" in2="0dropshadow" result="shape"/>
</filter>
</defs>
</svg>
