<svg width="40" height="38" viewBox="0 0 40 38" fill="none" xmlns="http://www.w3.org/2000/svg" xmlns:xlink="http://www.w3.org/1999/xlink">
<path d="M22.061,37.103L19.581,35.678L25.282,25.701L33.834,25.701C34.59,25.701 35.315,25.401 35.85,24.866C36.384,24.332 36.684,23.607 36.684,22.851L36.684,5.748C36.684,4.992 36.384,4.266 35.85,3.732C35.315,3.197 34.59,2.897 33.834,2.897L5.329,2.897C4.573,2.897 3.848,3.197 3.313,3.732C2.779,4.266 2.478,4.992 2.478,5.748L2.478,22.851C2.478,23.607 2.779,24.332 3.313,24.866C3.848,25.401 4.573,25.701 5.329,25.701L18.156,25.701L18.156,28.552L5.329,28.552C3.817,28.552 2.367,27.951 1.298,26.882C0.229,25.813 -0.372,24.363 -0.372,22.851L-0.372,5.748C-0.372,4.236 0.229,2.785 1.298,1.716C2.367,0.647 3.817,0.047 5.329,0.047L33.834,0.047C35.346,0.047 36.796,0.647 37.865,1.716C38.934,2.785 39.535,4.236 39.535,5.748L39.535,22.851C39.535,24.363 38.934,25.813 37.865,26.882C36.796,27.951 35.346,28.552 33.834,28.552L26.936,28.552L22.061,37.103Z" fill="#797979"/>
<path d="M8.179,8.598L30.983,8.598L30.983,11.449L8.179,11.449L8.179,8.598ZM8.179,17.15L22.432,17.15L22.432,20L8.179,20L8.179,17.15Z" fill="#797979"/>
</svg>
