<svg width="32" height="32" viewBox="0 0 32 32" fill="none" xmlns="http://www.w3.org/2000/svg" xmlns:xlink="http://www.w3.org/1999/xlink">
<path d="M31.225,26.609C31.662,27.052 31.905,27.636 31.881,28.244C31.881,28.851 31.638,29.411 31.176,29.855C30.738,30.276 30.131,30.533 29.499,30.533C28.867,30.533 28.26,30.322 27.798,29.902L14.044,16.682C13.825,16.471 13.655,16.215 13.533,15.934C13.412,15.654 13.339,15.35 13.339,15.047C13.339,14.743 13.412,14.439 13.533,14.136C13.655,13.856 13.825,13.599 14.044,13.388L27.798,0.168C28.017,-0.042 28.284,-0.229 28.576,-0.346C28.892,-0.462 29.208,-0.532 29.523,-0.532C29.839,-0.532 30.18,-0.486 30.471,-0.369C30.763,-0.252 31.03,-0.065 31.273,0.145C31.492,0.355 31.662,0.635 31.783,0.916C31.929,1.196 31.978,1.5 31.978,1.827C31.978,2.13 31.905,2.434 31.783,2.714C31.662,2.994 31.468,3.251 31.225,3.485L19.195,15.047L21.48,17.219L31.225,26.609Z" fill="#181725" stroke="#181725" stroke-width="0.1" stroke-miterlimit="3.999327"/>
<path d="M18.44,26.609C18.878,27.052 19.121,27.636 19.096,28.244C19.096,28.851 18.853,29.411 18.392,29.855C17.954,30.276 17.347,30.533 16.715,30.533C16.083,30.533 15.476,30.322 15.014,29.902L1.259,16.682C1.041,16.472 0.871,16.215 0.749,15.934C0.628,15.654 0.555,15.35 0.555,15.047C0.555,14.743 0.628,14.439 0.749,14.136C0.871,13.856 1.041,13.599 1.259,13.388L15.014,0.168C15.233,-0.042 15.5,-0.229 15.791,-0.346C16.107,-0.462 16.423,-0.532 16.739,-0.532C17.055,-0.532 17.395,-0.486 17.687,-0.369C17.979,-0.252 18.246,-0.065 18.489,0.145C18.708,0.355 18.878,0.635 18.999,0.916C19.145,1.196 19.194,1.5 19.194,1.827C19.194,2.13 19.121,2.434 18.999,2.714C18.878,2.995 18.683,3.251 18.44,3.485L6.411,15.047L8.696,17.219L18.44,26.609Z" transform="rotate(-360 9.874 15)" fill="#181725" stroke="#181725" stroke-width="0.1" stroke-miterlimit="3.999327"/>
</svg>
