<svg width="32" height="32" viewBox="0 0 32 32" fill="none" xmlns="http://www.w3.org/2000/svg" xmlns:xlink="http://www.w3.org/1999/xlink">
<path d="M30.67,27.141C31.107,27.585 31.35,28.169 31.326,28.776C31.326,29.383 31.083,29.944 30.621,30.388C30.184,30.808 29.576,31.065 28.944,31.065C28.312,31.065 27.705,30.855 27.243,30.434L13.489,17.214C13.27,17.004 13.1,16.747 12.978,16.467C12.857,16.186 12.784,15.883 12.784,15.579C12.784,15.276 12.857,14.972 12.978,14.668C13.1,14.388 13.27,14.131 13.489,13.921L27.243,0.701C27.462,0.491 27.729,0.304 28.021,0.187C28.337,0.07 28.653,0 28.969,0C29.285,0 29.625,0.047 29.916,0.163C30.208,0.28 30.475,0.467 30.718,0.677C30.937,0.888 31.107,1.168 31.229,1.448C31.374,1.728 31.423,2.032 31.423,2.359C31.423,2.663 31.35,2.966 31.229,3.247C31.107,3.527 30.913,3.784 30.67,4.017L18.641,15.579L20.925,17.751L30.67,27.141Z" fill="#181725" stroke="#181725" stroke-width="0.1" stroke-miterlimit="3.999327"/>
<path d="M17.886,27.141C18.323,27.585 18.566,28.169 18.542,28.776C18.542,29.383 18.299,29.944 17.837,30.388C17.4,30.808 16.792,31.065 16.16,31.065C15.528,31.065 14.921,30.855 14.459,30.434L0.705,17.214C0.486,17.004 0.316,16.747 0.194,16.467C0.073,16.186 0,15.883 0,15.579C0,15.276 0.073,14.972 0.194,14.668C0.316,14.388 0.486,14.131 0.705,13.921L14.459,0.701C14.678,0.49 14.945,0.304 15.237,0.187C15.553,0.07 15.869,0 16.185,0C16.5,0 16.841,0.047 17.132,0.163C17.424,0.28 17.691,0.467 17.934,0.677C18.153,0.888 18.323,1.168 18.445,1.448C18.59,1.728 18.639,2.032 18.639,2.359C18.639,2.663 18.566,2.966 18.445,3.247C18.323,3.527 18.129,3.784 17.886,4.017L5.857,15.579L8.141,17.751L17.886,27.141Z" transform="rotate(-360 9.319 15.532)" fill="#181725" stroke="#181725" stroke-width="0.1" stroke-miterlimit="3.999327"/>
</svg>
