<svg width="34" height="34" viewBox="0 0 34 34" fill="none" xmlns="http://www.w3.org/2000/svg" xmlns:xlink="http://www.w3.org/1999/xlink">
<path d="M33.148,25.1C32.711,29.183 29.446,32.405 25.393,32.823C25.101,32.853 24.648,32.868 24.035,32.868C17.763,32.87 12.833,32.87 9.246,32.868C6.35,32.866 3.705,31.428 2.071,29.06C1.258,27.882 0.77,26.55 0.607,25.065C0.574,24.77 0.558,24.318 0.558,23.707C0.559,18.867 0.56,13.937 0.561,8.919C0.561,5.719 2.323,2.807 5.136,1.277C6.195,0.701 7.31,0.367 8.479,0.275C8.836,0.247 9.296,0.233 9.857,0.233C14.124,0.233 18.391,0.233 22.658,0.233C23.549,0.233 24.357,0.478 25.081,0.968C25.314,1.125 25.646,1.406 26.078,1.811C28.006,3.622 29.883,5.374 31.708,7.069C32.509,7.811 32.986,8.672 33.138,9.652C33.183,9.943 33.205,10.392 33.204,11.001C33.193,15.249 33.192,19.498 33.202,23.748C33.204,24.296 33.185,24.747 33.148,25.1ZM24.966,9.673C23.366,8.962 22.325,7.455 22.32,5.697C22.316,4.64 22.316,3.571 22.319,2.493C22.319,2.436 22.29,2.408 22.234,2.408C18.059,2.41 13.87,2.409 9.666,2.404C9.13,2.404 8.691,2.428 8.349,2.476C5.459,2.886 3.253,5.112 2.807,7.986C2.755,8.327 2.729,8.726 2.73,9.182C2.742,14.043 2.741,18.847 2.729,23.593C2.728,24.101 2.745,24.526 2.779,24.866C2.905,26.083 3.341,27.173 4.087,28.134C5.158,29.514 6.565,30.343 8.307,30.62C8.641,30.673 9.098,30.699 9.68,30.697C14.566,30.689 19.291,30.689 23.857,30.699C24.455,30.7 24.9,30.685 25.189,30.656C26.338,30.538 27.379,30.137 28.311,29.453C29.792,28.369 30.672,26.911 30.953,25.079C31,24.773 31.023,24.345 31.023,23.794C31.022,19.285 31.02,14.729 31.019,10.125C31.019,10.059 30.986,10.026 30.92,10.026C29.6,10.021 28.268,10.021 26.924,10.026C26.204,10.028 25.586,9.948 24.966,9.673ZM24.495,5.683C24.498,6.631 25.099,7.422 25.99,7.74C26.225,7.824 26.636,7.862 27.225,7.854C27.98,7.843 28.669,7.842 29.293,7.851C29.333,7.852 29.338,7.838 29.309,7.81L24.533,3.353C24.53,3.35 24.526,3.348 24.521,3.347C24.517,3.346 24.513,3.347 24.509,3.348C24.504,3.35 24.501,3.353 24.498,3.357C24.496,3.36 24.495,3.365 24.494,3.369C24.493,4.17 24.493,4.941 24.495,5.683Z" fill="#797979"/>
<path d="M17.972,17.686C17.961,18.722 17.962,19.863 17.973,21.109C17.976,21.469 17.945,21.723 17.879,21.869C17.605,22.478 16.892,22.727 16.311,22.368C15.931,22.133 15.785,21.777 15.787,21.331C15.792,20.135 15.793,18.925 15.789,17.7C15.789,17.684 15.782,17.669 15.771,17.657C15.76,17.646 15.744,17.639 15.728,17.639C14.498,17.637 13.266,17.638 12.03,17.64C10.825,17.643 10.449,16.05 11.549,15.552C11.693,15.487 11.91,15.455 12.2,15.457C13.29,15.466 14.47,15.467 15.74,15.459C15.752,15.459 15.765,15.454 15.774,15.445C15.783,15.436 15.788,15.423 15.788,15.41C15.795,14.276 15.794,13.12 15.785,11.943C15.782,11.618 15.81,11.386 15.869,11.247C16.163,10.547 17.058,10.331 17.623,10.867C17.873,11.103 17.97,11.393 17.968,11.737C17.965,13.006 17.965,14.226 17.967,15.396C17.967,15.413 17.974,15.43 17.987,15.443C18,15.455 18.017,15.462 18.034,15.462C19.285,15.463 20.524,15.463 21.752,15.462C22.643,15.461 23.152,16.418 22.677,17.147C22.463,17.475 22.141,17.639 21.71,17.639C20.424,17.639 19.193,17.639 18.019,17.639C17.988,17.639 17.972,17.654 17.972,17.686Z" fill="#797979"/>
</svg>
