<svg width="326" height="292" viewBox="0 0 326 292" fill="none" xmlns="http://www.w3.org/2000/svg" xmlns:xlink="http://www.w3.org/1999/xlink">
<path d="M58.951,8.445C58.156,7.385 56.652,7.17 55.591,7.965C54.531,8.761 54.316,10.265 55.111,11.325L58.951,8.445ZM91.611,59.992C92.407,61.052 93.911,61.267 94.971,60.472C96.032,59.677 96.247,58.172 95.451,57.112L91.611,59.992ZM55.111,11.325L91.611,59.992L95.451,57.112L58.951,8.445L55.111,11.325Z" fill="#0F0F0F"/>
<path d="M96.972,22.133C96.177,21.073 94.672,20.858 93.612,21.653C92.552,22.448 92.337,23.953 93.132,25.013L96.972,22.133ZM129.632,73.679C130.427,74.74 131.932,74.955 132.992,74.159C134.052,73.364 134.267,71.86 133.472,70.799L129.632,73.679ZM93.132,25.013L129.632,73.679L133.472,70.799L96.972,22.133L93.132,25.013Z" fill="#167F71"/>
<path d="M225.252,111.159L215.973,128.649L195.202,131.705L210.208,146.339L206.653,166.872L225.227,157.17L243.797,166.872L240.233,146.339L254.885,131.705L234.538,128.649L225.252,111.159ZM84.738,111.16L75.443,128.649L54.751,131.705L69.694,146.339L66.132,166.872L84.697,157.17L103.268,166.872L99.706,146.339L114.785,131.705L94.017,128.649L84.738,111.16Z" clip-rule="evenodd" fill-rule="evenodd" fill="#FFB62A"/>
<path d="M84.737,111.159L84.737,157.169L103.308,166.871L99.743,146.339L114.785,131.704L94.016,128.649L84.737,111.159Z" clip-rule="evenodd" fill-rule="evenodd" fill="#FFB62A"/>
<path d="M183.122,189.447C180.365,189.447 178.19,187.288 178.19,184.518L178.19,179.599L128.752,179.599L128.752,184.518C128.752,187.288 126.596,189.447 123.826,189.447L109.001,189.447L109.001,233.047C109.001,259.246 126.777,282.177 152.28,288.597L153.46,288.883L154.63,288.597C180.143,282.177 197.915,259.221 197.915,233.047L197.915,189.447L183.122,189.447Z" clip-rule="evenodd" fill-rule="evenodd" fill="#F5F5F5"/>
<path d="M197.941,189.447L197.941,233.047C197.941,259.246 180.165,282.177 154.665,288.597L153.489,288.883L153.489,179.561L178.19,179.561L178.19,184.493C178.19,187.262 180.366,189.425 183.123,189.425L197.941,189.425L197.941,189.447Z" clip-rule="evenodd" fill-rule="evenodd" fill="#E7E7F2"/>
<path d="M183.122,199.336C176.702,199.336 171.172,195.174 169.197,189.447L137.783,189.447C135.71,195.362 130.123,199.336 123.845,199.336L118.929,199.336L118.929,233.072C118.929,254.327 133.039,273.022 153.52,278.771C173.967,273.044 188.115,254.327 188.115,233.072L188.115,199.336L183.122,199.336Z" clip-rule="evenodd" fill-rule="evenodd" fill="#26BFA6"/>
<path d="M188.053,199.336L188.053,233.072C188.053,254.327 173.931,273.022 153.462,278.771L153.462,189.447L169.161,189.447C171.139,195.174 176.679,199.336 183.096,199.336L188.053,199.336Z" clip-rule="evenodd" fill-rule="evenodd" fill="#26BFA6"/>
<path d="M185.029,131.704L164.261,128.648L154.981,111.158L145.69,128.648L124.938,131.704L139.937,146.338L136.373,166.871L154.943,157.169L173.514,166.871L169.962,146.338L185.029,131.704Z" clip-rule="evenodd" fill-rule="evenodd" fill="#FFB62A"/>
<path d="M171.744,227.833L153.459,246.213L148.53,251.148L135.175,237.694L142.11,230.765L148.53,237.083L153.459,232.151L164.812,220.898L171.744,227.833Z" clip-rule="evenodd" fill-rule="evenodd" fill="#F5F5F5"/>
<path d="M173.554,166.871L154.983,157.169L154.983,111.159L164.259,128.648L185.027,131.704L170.024,146.338L173.554,166.871Z" clip-rule="evenodd" fill-rule="evenodd" fill="#FFB62A"/>
<path d="M171.744,227.833L153.459,246.213L153.459,232.193L164.811,220.939L171.744,227.833Z" clip-rule="evenodd" fill-rule="evenodd" fill="#E7E7F2"/>
<path d="M266.146,20.531L258.101,24.761L259.637,15.802L253.128,9.458L262.123,8.151L266.146,0L270.169,8.151L279.163,9.458L272.655,15.802L274.191,24.761L266.146,20.531Z" clip-rule="evenodd" fill-rule="evenodd" fill="#FCC202"/>
<path d="M314.812,107.979L325.458,129.271L304.167,129.271L314.812,107.979Z" clip-rule="evenodd" fill-rule="evenodd" fill="#167F71"/>
<circle cx="249.417" cy="86.688" r="9.125" fill="#472D2D"/>
<path d="M13.688,204.552L5.642,208.782L7.179,199.823L0.67,193.479L9.665,192.172L13.688,184.021L17.71,192.172L26.705,193.479L20.196,199.823L21.733,208.782L13.688,204.552Z" clip-rule="evenodd" fill-rule="evenodd" fill="#FF001E"/>
<path d="M59.312,270.708L69.958,292L48.667,292L59.312,270.708Z" clip-rule="evenodd" fill-rule="evenodd" fill="#332DA1"/>
<circle cx="56.271" cy="223.562" r="6.083" fill="#167F71"/>
<circle cx="30.417" cy="71.479" r="9.125" fill="#FF6B00"/>
</svg>
