<svg width="40" height="40" viewBox="0 0 40 40" fill="none" xmlns="http://www.w3.org/2000/svg" xmlns:xlink="http://www.w3.org/1999/xlink">
<path d="M30.931,32.581L31.916,33.713L30.931,32.581ZM4.833,20C4.833,11.624 11.624,4.833 20,4.833L20,1.833C9.967,1.833 1.833,9.967 1.833,20L4.833,20ZM20,4.833C28.376,4.833 35.167,11.624 35.167,20L38.167,20C38.167,9.967 30.033,1.833 20,1.833L20,4.833ZM20,26.5C24.36,26.5 28.083,29.245 29.526,33.107L32.336,32.056C30.469,27.061 25.652,23.5 20,23.5L20,26.5ZM35.167,20C35.167,24.57 33.147,28.667 29.947,31.45L31.916,33.713C35.743,30.385 38.167,25.475 38.167,20L35.167,20ZM29.947,31.45C27.283,33.766 23.807,35.167 20,35.167L20,38.167C24.558,38.167 28.727,36.486 31.916,33.713L29.947,31.45ZM10.474,33.107C11.917,29.245 15.64,26.5 20,26.5L20,23.5C14.348,23.5 9.531,27.061 7.664,32.056L10.474,33.107ZM20,35.167C16.193,35.167 12.717,33.766 10.053,31.45L8.084,33.713C11.273,36.486 15.442,38.167 20,38.167L20,35.167ZM10.053,31.45C6.853,28.667 4.833,24.57 4.833,20L1.833,20C1.833,25.475 4.257,30.385 8.084,33.713L10.053,31.45Z" fill="#28303F"/>
<circle cx="20" cy="15" r="5" transform="rotate(0 20 15)" stroke="#28303F" stroke-width="1.5" stroke-miterlimit="3.999327" stroke-linejoin="round"/>
</svg>
