<svg width="48" height="48" viewBox="0 0 48 48" fill="none" xmlns="http://www.w3.org/2000/svg" xmlns:xlink="http://www.w3.org/1999/xlink">
<path d="M8.94,14.053L7.986,12.895L7.986,12.895L8.94,14.053ZM18.94,5.819L17.986,4.661L17.986,4.661L18.94,5.819ZM29.06,5.819L28.107,6.977L28.107,6.977L29.06,5.819ZM39.06,14.053L38.107,15.211L38.107,15.211L39.06,14.053ZM40.5,20.301L40.5,35.934L43.5,35.934L43.5,20.301L40.5,20.301ZM34,42.5L14,42.5L14,45.5L34,45.5L34,42.5ZM7.5,35.934L7.5,20.301L4.5,20.301L4.5,35.934L7.5,35.934ZM9.893,15.211L19.893,6.977L17.986,4.661L7.986,12.895L9.893,15.211ZM28.107,6.977L38.107,15.211L40.014,12.895L30.014,4.661L28.107,6.977ZM19.893,6.977C22.284,5.008 25.716,5.008 28.107,6.977L30.014,4.661C26.515,1.78 21.485,1.78 17.986,4.661L19.893,6.977ZM14,42.5C10.422,42.5 7.5,39.572 7.5,35.934L4.5,35.934C4.5,41.205 8.742,45.5 14,45.5L14,42.5ZM40.5,35.934C40.5,39.572 37.578,42.5 34,42.5L34,45.5C39.258,45.5 43.5,41.205 43.5,35.934L40.5,35.934ZM43.5,20.301C43.5,17.433 42.222,14.714 40.014,12.895L38.107,15.211C39.619,16.456 40.5,18.324 40.5,20.301L43.5,20.301ZM7.5,20.301C7.5,18.324 8.381,16.456 9.893,15.211L7.986,12.895C5.778,14.714 4.5,17.433 4.5,20.301L7.5,20.301Z" fill="#FFFFFF"/>
<line x1="20" y1="34.5" x2="28" y2="34.5" stroke="#FFFFFF" stroke-width="1.5" stroke-miterlimit="3.999327" stroke-linecap="round"/>
</svg>
