<svg width="40" height="40" viewBox="0 0 40 40" fill="none" xmlns="http://www.w3.org/2000/svg" xmlns:xlink="http://www.w3.org/1999/xlink">
<path d="M31.414,11.414C32.195,10.633 32.195,9.367 31.414,8.586C30.633,7.805 29.367,7.805 28.586,8.586L31.414,11.414ZM8.586,28.586C7.805,29.367 7.805,30.633 8.586,31.414C9.367,32.195 10.633,32.195 11.414,31.414L8.586,28.586ZM28.586,8.586L8.586,28.586L11.414,31.414L31.414,11.414L28.586,8.586Z" fill="#292A2D"/>
<path d="M11.414,8.586C10.633,7.805 9.367,7.805 8.586,8.586C7.805,9.367 7.805,10.633 8.586,11.414L11.414,8.586ZM28.586,31.414C29.367,32.195 30.633,32.195 31.414,31.414C32.195,30.633 32.195,29.367 31.414,28.586L28.586,31.414ZM8.586,11.414L28.586,31.414L31.414,28.586L11.414,8.586L8.586,11.414Z" fill="#292A2D"/>
</svg>
