<svg width="40" height="40" viewBox="0 0 40 40" fill="none" xmlns="http://www.w3.org/2000/svg" xmlns:xlink="http://www.w3.org/1999/xlink">
<path d="M21.675,1.243L26.129,10.189C26.457,10.837 27.081,11.291 27.807,11.399L37.801,12.853C38.385,12.939 38.917,13.243 39.269,13.711C39.629,14.181 39.777,14.767 39.691,15.345C39.621,15.821 39.393,16.267 39.051,16.603L31.807,23.619C31.277,24.119 31.035,24.837 31.159,25.547L32.949,35.423C33.143,36.603 32.355,37.719 31.159,37.961C30.675,38.039 30.175,37.961 29.737,37.735L20.815,33.087C20.151,32.751 19.371,32.751 18.715,33.087L9.793,37.735C8.689,38.321 7.317,37.915 6.721,36.837C6.497,36.407 6.419,35.915 6.489,35.439L8.275,25.563C8.403,24.861 8.161,24.133 7.629,23.633L0.385,16.625C-0.035,16.211 -0.279,15.649 -0.279,15.063C-0.279,14.477 -0.035,13.915 0.385,13.501C0.729,13.157 1.181,12.931 1.675,12.869L11.669,11.415C12.393,11.305 13.017,10.861 13.339,10.205L17.643,1.243C18.017,0.485 18.807,0.001 19.675,0.017L19.941,0.017C20.691,0.111 21.347,0.571 21.675,1.243Z" clip-rule="evenodd" fill-rule="evenodd" fill="#FF9C07"/>
<path d="M19.73,32.821C19.338,32.821 18.972,32.953 18.62,33.125L9.73,37.759C8.66,38.297 7.308,37.867 6.722,36.837C6.496,36.415 6.41,35.931 6.488,35.453L8.276,25.603C8.394,24.883 8.152,24.165 7.628,23.657L0.37,16.641C-0.504,15.783 -0.504,14.383 0.37,13.517C0.714,13.181 1.16,12.961 1.636,12.891L11.668,11.415C12.432,11.305 12.988,10.877 13.338,10.205L17.698,1.141C18.026,0.407 19.144,-0.101 19.746,0.017C19.73,0.619 19.73,32.423 19.73,32.821Z" clip-rule="evenodd" fill-rule="evenodd" fill="#E78B01"/>
</svg>
