<svg width="42" height="40" viewBox="0 0 42 40" fill="none" xmlns="http://www.w3.org/2000/svg" xmlns:xlink="http://www.w3.org/1999/xlink">
<path d="M22.532,1.243L26.986,10.189C27.314,10.837 27.938,11.291 28.664,11.399L38.658,12.853C39.242,12.939 39.774,13.243 40.126,13.711C40.486,14.181 40.634,14.767 40.548,15.345C40.478,15.821 40.25,16.267 39.908,16.603L32.664,23.619C32.134,24.119 31.892,24.837 32.016,25.547L33.806,35.423C34,36.603 33.212,37.719 32.016,37.961C31.532,38.039 31.032,37.961 30.594,37.735L21.672,33.087C21.008,32.751 20.228,32.751 19.572,33.087L10.65,37.735C9.546,38.321 8.174,37.915 7.578,36.837C7.354,36.407 7.276,35.915 7.346,35.439L9.132,25.563C9.26,24.861 9.018,24.133 8.486,23.633L1.242,16.625C0.822,16.211 0.578,15.649 0.578,15.063C0.578,14.477 0.822,13.915 1.242,13.501C1.586,13.157 2.038,12.931 2.532,12.869L12.526,11.415C13.25,11.305 13.874,10.861 14.196,10.205L18.5,1.243C18.874,0.485 19.664,0.001 20.532,0.017L20.798,0.017C21.548,0.111 22.204,0.571 22.532,1.243Z" clip-rule="evenodd" fill-rule="evenodd" fill="#FF9C07"/>
<path d="M20.587,32.821C20.195,32.821 19.829,32.953 19.477,33.125L10.587,37.759C9.517,38.297 8.165,37.867 7.579,36.837C7.353,36.415 7.267,35.931 7.345,35.453L9.133,25.603C9.251,24.883 9.009,24.165 8.485,23.657L1.227,16.641C0.353,15.783 0.353,14.383 1.227,13.517C1.571,13.181 2.017,12.961 2.493,12.891L12.525,11.415C13.289,11.305 13.845,10.877 14.195,10.205L18.555,1.141C18.883,0.407 20.001,-0.101 20.603,0.017C20.587,0.619 20.587,32.423 20.587,32.821Z" clip-rule="evenodd" fill-rule="evenodd" fill="#E78B01"/>
</svg>
