<svg width="40" height="40" viewBox="0 0 40 40" fill="none" xmlns="http://www.w3.org/2000/svg" xmlns:xlink="http://www.w3.org/1999/xlink">
<path d="M21.39,1.243L25.844,10.189C26.172,10.837 26.796,11.291 27.522,11.399L37.516,12.853C38.1,12.939 38.632,13.243 38.984,13.711C39.344,14.181 39.492,14.767 39.406,15.345C39.336,15.821 39.108,16.267 38.766,16.603L31.522,23.619C30.992,24.119 30.75,24.837 30.874,25.547L32.664,35.423C32.858,36.603 32.07,37.719 30.874,37.961C30.39,38.039 29.89,37.961 29.452,37.735L20.53,33.087C19.866,32.751 19.086,32.751 18.43,33.087L9.508,37.735C8.404,38.321 7.032,37.915 6.436,36.837C6.212,36.407 6.134,35.915 6.204,35.439L7.99,25.563C8.118,24.861 7.876,24.133 7.344,23.633L0.1,16.625C-0.32,16.211 -0.564,15.649 -0.564,15.063C-0.564,14.477 -0.32,13.915 0.1,13.501C0.444,13.157 0.896,12.931 1.39,12.869L11.384,11.415C12.108,11.305 12.732,10.861 13.054,10.205L17.358,1.243C17.732,0.485 18.522,0.001 19.39,0.017L19.656,0.017C20.406,0.111 21.062,0.571 21.39,1.243Z" clip-rule="evenodd" fill-rule="evenodd" fill="#B4BDC4"/>
<path d="M19.444,32.821C19.052,32.821 18.686,32.953 18.334,33.125L9.444,37.759C8.374,38.297 7.022,37.867 6.436,36.837C6.21,36.415 6.124,35.931 6.202,35.453L7.99,25.603C8.108,24.883 7.866,24.165 7.342,23.657L0.084,16.641C-0.79,15.783 -0.79,14.383 0.084,13.517C0.428,13.181 0.874,12.961 1.35,12.891L11.382,11.415C12.146,11.305 12.702,10.877 13.052,10.205L17.412,1.141C17.74,0.407 18.858,-0.101 19.46,0.017C19.444,0.619 19.444,32.423 19.444,32.821Z" clip-rule="evenodd" fill-rule="evenodd" fill="#A0A4AB"/>
</svg>
