<svg width="42" height="40" viewBox="0 0 42 40" fill="none" xmlns="http://www.w3.org/2000/svg" xmlns:xlink="http://www.w3.org/1999/xlink">
<path d="M22.818,1.243L27.272,10.189C27.6,10.837 28.224,11.291 28.95,11.399L38.944,12.853C39.528,12.939 40.06,13.243 40.412,13.711C40.772,14.181 40.92,14.767 40.834,15.345C40.764,15.821 40.536,16.267 40.194,16.603L32.95,23.619C32.42,24.119 32.178,24.837 32.302,25.547L34.092,35.423C34.286,36.603 33.498,37.719 32.302,37.961C31.818,38.039 31.318,37.961 30.88,37.735L21.958,33.087C21.294,32.751 20.514,32.751 19.858,33.087L10.936,37.735C9.832,38.321 8.46,37.915 7.864,36.837C7.64,36.407 7.562,35.915 7.632,35.439L9.418,25.563C9.546,24.861 9.304,24.133 8.772,23.633L1.528,16.625C1.108,16.211 0.864,15.649 0.864,15.063C0.864,14.477 1.108,13.915 1.528,13.501C1.872,13.157 2.324,12.931 2.818,12.869L12.812,11.415C13.536,11.305 14.16,10.861 14.482,10.205L18.786,1.243C19.16,0.485 19.95,0.001 20.818,0.017L21.084,0.017C21.834,0.111 22.49,0.571 22.818,1.243Z" clip-rule="evenodd" fill-rule="evenodd" fill="#FF9C07"/>
<path d="M20.872,32.821C20.48,32.821 20.114,32.953 19.762,33.125L10.872,37.759C9.802,38.297 8.45,37.867 7.864,36.837C7.638,36.415 7.552,35.931 7.63,35.453L9.418,25.603C9.536,24.883 9.294,24.165 8.77,23.657L1.512,16.641C0.638,15.783 0.638,14.383 1.512,13.517C1.856,13.181 2.302,12.961 2.778,12.891L12.81,11.415C13.574,11.305 14.13,10.877 14.48,10.205L18.84,1.141C19.168,0.407 20.286,-0.101 20.888,0.017C20.872,0.619 20.872,32.423 20.872,32.821Z" clip-rule="evenodd" fill-rule="evenodd" fill="#E78B01"/>
</svg>
