<svg width="66" height="66" viewBox="0 0 66 66" fill="none" xmlns="http://www.w3.org/2000/svg" xmlns:xlink="http://www.w3.org/1999/xlink">
<path d="M61.448,10.81L4.552,10.81C2.352,10.81 0.569,12.593 0.569,14.793L0.569,51.207C0.569,53.407 2.352,55.19 4.552,55.19L61.448,55.19C63.648,55.19 65.431,53.407 65.431,51.207L65.431,14.793C65.431,12.593 63.648,10.81 61.448,10.81Z" fill="#000000" stroke="#F3F3F3" stroke-width="1" stroke-miterlimit="3.999327"/>
<path d="M24.18,45.393L24.18,47.073L24.18,48.754L23.443,48.754L23.443,48.346C23.21,48.649 22.855,48.838 22.373,48.838C21.423,48.838 20.679,48.1 20.679,47.073C20.679,46.047 21.423,45.308 22.373,45.308C22.855,45.308 23.21,45.498 23.443,45.801L23.443,45.393L24.18,45.393ZM22.465,45.997C21.827,45.997 21.437,46.483 21.437,47.073C21.437,47.664 21.827,48.149 22.465,48.149C23.074,48.149 23.485,47.685 23.485,47.073C23.485,46.462 23.074,45.997 22.465,45.997ZM49.071,47.073C49.071,46.483 49.461,45.997 50.099,45.997C50.709,45.997 51.119,46.462 51.119,47.073C51.119,47.685 50.709,48.149 50.099,48.149C49.461,48.149 49.071,47.664 49.071,47.073ZM51.814,44.043L51.814,47.073L51.814,48.754L51.077,48.754L51.077,48.346C50.843,48.649 50.489,48.838 50.007,48.838C49.057,48.838 48.312,48.1 48.312,47.073C48.312,46.047 49.057,45.308 50.007,45.308C50.489,45.308 50.843,45.498 51.077,45.801L51.077,44.043L51.814,44.043ZM33.323,45.963C33.797,45.963 34.102,46.258 34.18,46.778L32.422,46.778C32.501,46.293 32.798,45.963 33.323,45.963ZM31.65,47.073C31.65,46.025 32.345,45.308 33.338,45.308C34.287,45.308 34.939,46.025 34.946,47.073C34.946,47.171 34.939,47.263 34.932,47.354L32.416,47.354C32.522,47.96 32.955,48.178 33.429,48.178C33.769,48.178 34.131,48.05 34.415,47.826L34.776,48.368C34.364,48.712 33.897,48.838 33.387,48.838C32.373,48.838 31.65,48.142 31.65,47.073ZM42.232,47.073C42.232,46.483 42.622,45.997 43.259,45.997C43.869,45.997 44.28,46.462 44.28,47.073C44.28,47.685 43.869,48.149 43.259,48.149C42.622,48.149 42.232,47.664 42.232,47.073ZM44.974,45.393L44.974,47.073L44.974,48.754L44.238,48.754L44.238,48.346C44.003,48.649 43.65,48.838 43.168,48.838C42.218,48.838 41.473,48.1 41.473,47.073C41.473,46.047 42.218,45.308 43.168,45.308C43.65,45.308 44.003,45.498 44.238,45.801L44.238,45.393L44.974,45.393ZM38.072,47.073C38.072,48.093 38.787,48.838 39.879,48.838C40.389,48.838 40.729,48.726 41.098,48.438L40.744,47.847C40.467,48.044 40.177,48.149 39.857,48.149C39.269,48.142 38.837,47.72 38.837,47.073C38.837,46.426 39.269,46.004 39.857,45.997C40.177,45.997 40.467,46.103 40.744,46.3L41.098,45.709C40.729,45.421 40.389,45.308 39.879,45.308C38.787,45.308 38.072,46.054 38.072,47.073ZM46.675,45.801C46.867,45.505 47.143,45.308 47.569,45.308C47.718,45.308 47.93,45.336 48.093,45.4L47.866,46.089C47.71,46.025 47.555,46.004 47.405,46.004C46.924,46.004 46.683,46.313 46.683,46.87L46.683,48.754L45.945,48.754L45.945,45.393L46.675,45.393L46.675,45.801ZM27.823,45.66C27.468,45.428 26.98,45.308 26.441,45.308C25.583,45.308 25.031,45.716 25.031,46.384C25.031,46.933 25.442,47.27 26.2,47.376L26.548,47.425C26.952,47.481 27.142,47.587 27.142,47.777C27.142,48.037 26.873,48.185 26.37,48.185C25.86,48.185 25.492,48.023 25.243,47.833L24.896,48.402C25.3,48.698 25.81,48.838 26.363,48.838C27.341,48.838 27.908,48.381 27.908,47.741C27.908,47.151 27.462,46.841 26.725,46.736L26.377,46.686C26.059,46.644 25.803,46.582 25.803,46.356C25.803,46.11 26.044,45.963 26.448,45.963C26.88,45.963 27.299,46.124 27.504,46.251L27.823,45.66ZM36.435,45.801C36.625,45.505 36.902,45.308 37.327,45.308C37.476,45.308 37.689,45.336 37.852,45.4L37.625,46.089C37.469,46.025 37.313,46.004 37.164,46.004C36.682,46.004 36.441,46.313 36.441,46.87L36.441,48.754L35.705,48.754L35.705,45.393L36.435,45.393L36.435,45.801ZM31.041,45.393L29.836,45.393L29.836,44.373L29.092,44.373L29.092,45.393L28.405,45.393L28.405,46.061L29.092,46.061L29.092,47.594C29.092,48.374 29.397,48.838 30.268,48.838C30.587,48.838 30.956,48.74 31.189,48.578L30.977,47.952C30.757,48.079 30.516,48.142 30.325,48.142C29.956,48.142 29.836,47.917 29.836,47.58L29.836,46.061L31.041,46.061L31.041,45.393ZM20.027,46.644L20.027,48.754L19.283,48.754L19.283,46.883C19.283,46.313 19.042,45.997 18.539,45.997C18.05,45.997 17.71,46.307 17.71,46.891L17.71,48.754L16.965,48.754L16.965,46.883C16.965,46.313 16.718,45.997 16.228,45.997C15.725,45.997 15.399,46.307 15.399,46.891L15.399,48.754L14.655,48.754L14.655,45.393L15.392,45.393L15.392,45.807C15.669,45.414 16.022,45.308 16.384,45.308C16.902,45.308 17.27,45.534 17.504,45.906C17.816,45.435 18.262,45.301 18.694,45.308C19.517,45.316 20.027,45.85 20.027,46.644Z" clip-rule="evenodd" fill-rule="evenodd" fill="#FFFFFF"/>
<rect  x="27.579" y="19.775" width="11.164" height="19.906" fill="#FF5F00"/>
<path d="M28.287,29.729C28.287,25.691 30.192,22.094 33.16,19.776C30.99,18.081 28.251,17.069 25.275,17.069C18.229,17.069 12.517,22.737 12.517,29.729C12.517,36.721 18.229,42.389 25.275,42.389C28.251,42.389 30.99,41.377 33.16,39.682C30.192,37.364 28.287,33.767 28.287,29.729Z" fill="#EB001B"/>
<path d="M53.803,29.729C53.803,36.721 48.092,42.389 41.046,42.389C38.069,42.389 35.331,41.377 33.16,39.682C36.128,37.364 38.034,33.767 38.034,29.729C38.034,25.691 36.128,22.094 33.16,19.776C35.331,18.081 38.069,17.069 41.046,17.069C48.092,17.069 53.803,22.737 53.803,29.729Z" fill="#F79E1B"/>
</svg>
