<svg width="406" height="504" viewBox="0 0 406 504" fill="none" xmlns="http://www.w3.org/2000/svg" xmlns:xlink="http://www.w3.org/1999/xlink">
<circle cx="155.945" cy="54" r="54" fill="#FFCE1F" fill-opacity="0.39"/>
<circle cx="155.945" cy="54" r="12" fill="#000000" stroke="#FFFFFF" stroke-width="3" stroke-miterlimit="3.999327" stroke-dasharray="6 6 "/>
<path d="M225.216,108.897L225.316,106.9L223.318,106.801L223.22,108.798L225.216,108.897ZM219.416,225.753L217.418,225.654L217.376,226.499L217.952,227.117L219.416,225.753ZM252.686,261.445L254.044,262.914L255.518,261.551L254.148,260.082L252.686,261.445ZM100.525,402.073L99.049,403.423L100.406,404.907L101.883,403.543L100.525,402.073ZM-0.665,294.345L3.49,298.89L6.443,296.191L2.288,291.647L-0.665,294.345ZM11.8,307.98L20.109,317.069L23.061,314.371L14.752,305.281L11.8,307.98ZM28.419,326.159L36.728,335.249L39.68,332.551L31.371,323.461L28.419,326.159ZM45.038,344.339L53.347,353.429L56.299,350.731L47.99,341.641L45.038,344.339ZM61.656,362.519L69.966,371.609L72.918,368.909L64.609,359.821L61.656,362.519ZM78.275,380.699L86.585,389.789L89.537,387.089L81.228,377.999L78.275,380.699ZM94.894,398.879L99.049,403.423L102.001,400.725L97.847,396.179L94.894,398.879ZM101.883,403.543L106.109,399.637L103.394,396.699L99.168,400.605L101.883,403.543ZM114.563,391.823L123.016,384.011L120.301,381.073L111.848,388.885L114.563,391.823ZM131.469,376.199L139.923,368.385L137.208,365.447L128.754,373.261L131.469,376.199ZM148.376,360.573L156.829,352.759L154.114,349.823L145.661,357.635L148.376,360.573ZM165.283,344.947L173.736,337.135L171.021,334.197L162.568,342.009L165.283,344.947ZM182.189,329.321L190.643,321.509L187.928,318.571L179.474,326.385L182.189,329.321ZM199.096,313.697L207.55,305.884L204.834,302.946L196.381,310.759L199.096,313.697ZM216.004,298.071L224.456,290.259L221.742,287.321L213.288,295.134L216.004,298.071ZM232.91,282.446L241.362,274.633L238.648,271.696L230.194,279.508L232.91,282.446ZM249.816,266.821L254.044,262.914L251.328,259.977L247.102,263.883L249.816,266.821ZM254.148,260.082L249.99,255.62L247.064,258.348L251.222,262.809L254.148,260.082ZM241.672,246.697L233.354,237.774L230.428,240.502L238.746,249.425L241.672,246.697ZM225.038,228.851L220.878,224.39L217.952,227.117L222.112,231.579L225.038,228.851ZM221.412,225.852L221.704,220.01L217.708,219.811L217.418,225.654L221.412,225.852ZM222.284,208.324L222.864,196.638L218.868,196.44L218.288,208.126L222.284,208.324ZM223.444,184.953L224.024,173.267L220.028,173.069L219.448,184.754L223.444,184.953ZM224.604,161.582L225.184,149.896L221.188,149.698L220.608,161.383L224.604,161.582ZM225.764,138.21L226.344,126.525L222.348,126.326L221.768,138.012L225.764,138.21ZM226.924,114.839L227.214,108.996L223.22,108.798L222.928,114.641L226.924,114.839ZM225.118,110.895L231.502,111.212L231.7,107.217L225.316,106.9L225.118,110.895ZM244.272,111.846L257.042,112.48L257.24,108.485L244.47,107.851L244.272,111.846ZM269.812,113.114L282.582,113.748L282.78,109.752L270.01,109.118L269.812,113.114ZM295.352,114.381L308.122,115.015L308.32,111.02L295.55,110.386L295.352,114.381ZM320.892,115.649L333.662,116.283L333.86,112.288L321.09,111.654L320.892,115.649ZM346.432,116.917L359.202,117.551L359.4,113.556L346.63,112.922L346.432,116.917ZM371.972,118.185L384.742,118.819L384.94,114.824L372.17,114.19L371.972,118.185ZM397.512,119.453L403.898,119.77L404.096,115.775L397.71,115.458L397.512,119.453Z" transform="rotate(174.316 202.404 255.486)" fill="#000000"/>
<circle cx="346.881" cy="462" r="36.386" transform="rotate(19.416 346.881 462)" fill="#FFFFFF"/>
<rect  x="320.828" y="462.375" width="36.386" height="36.386" transform="rotate(-81.205 320.828 462.375)" fill="#000000" fill-opacity="0"/>
<path d="M360.787,450.069C360.029,449.29 358.907,449 357.86,449.306L333.457,456.402C332.353,456.709 331.57,457.59 331.359,458.708C331.144,459.847 331.896,461.292 332.879,461.896L340.509,466.586C341.292,467.067 342.302,466.946 342.95,466.293L351.687,457.501C352.127,457.043 352.855,457.043 353.295,457.501C353.735,457.944 353.735,458.661 353.295,459.119L344.542,467.912C343.893,468.564 343.772,469.579 344.249,470.366L348.912,478.073C349.458,478.989 350.398,479.508 351.429,479.508C351.551,479.508 351.687,479.508 351.808,479.492C352.992,479.34 353.932,478.531 354.281,477.386L361.515,453.014C361.834,451.976 361.546,450.847 360.787,450.069Z" transform="rotate(-81.205 346.483 464.347)" fill="#000000"/>
</svg>
