<svg width="482" height="712" viewBox="0 0 482 712" fill="none" xmlns="http://www.w3.org/2000/svg" xmlns:xlink="http://www.w3.org/1999/xlink">
<mask id="mask_0_201_1348" style="mask-type:alpha" maskUnits="userSpaceOnUse" x="22.427628" y="0.051514" width="223.689545" height="343.973083">
<path d="M469.808,671.998C469.808,680.834 462.644,687.998 453.808,687.998L22.428,687.998L22.428,0.052L245.97,0.052L453.808,0.052C462.644,0.052 469.808,7.215 469.808,16.052L469.808,671.998Z" fill="url(#pf_0_201_1348)"/>
</mask>
<path d="M22.436,687.992C22.436,687.992 14.358,687.772 8.131,686.96C6.77,686.762 5.431,686.436 4.127,685.984C1.457,685.06 0,682.336 0,679.51L0,7.947C0,4.312 2.449,1.042 6.069,0.697C6.398,0.665 6.728,0.638 7.058,0.615C13.369,0.128 22.436,0 22.436,0L22.436,687.992Z" fill="#7D4246"/>
<path d="M469.807,671.998C469.807,680.834 462.643,687.998 453.807,687.998L22.427,687.998L22.427,0.052L245.969,0.052L453.807,0.052C462.643,0.052 469.807,7.215 469.807,16.052L469.807,671.998Z" fill="url(#pf_0_201_1346)"/>
<g mask="url(#mask_0_201_1348)">
<rect  x="0.762" y="0" width="479.381" height="710.193" fill="url(#pattern_0_201_1349)"/>
</g>
<rect  x="22.448" y="0.089" width="1.85" height="687.911" fill="#F2F2F2"/>
<rect  x="20.628" y="0.089" width="1.85" height="687.911" fill="#BFBFBF"/>
<defs>
<linearGradient id="pf_0_201_1346" x1="436.967" y1="708.921" x2="55.267" y2="-20.872" gradientUnits="userSpaceOnUse">
<stop stop-color="#C7C7C7"/>
<stop offset="1" stop-color="#DEDEDE"/>
</linearGradient>
</defs>
</svg>
