<svg width="22" height="22" viewBox="0 0 22 22" fill="none" xmlns="http://www.w3.org/2000/svg" xmlns:xlink="http://www.w3.org/1999/xlink">
<path d="M9.188,1.252C9.463,0.422 10.636,0.422 10.91,1.252L12.905,7.277C13.028,7.649 13.375,7.899 13.766,7.899L20.186,7.899C21.068,7.899 21.431,9.032 20.712,9.545L15.549,13.227C15.225,13.457 15.089,13.872 15.214,14.25L17.194,20.228C17.469,21.061 16.52,21.761 15.806,21.252L10.576,17.523C10.261,17.298 9.838,17.298 9.523,17.523L4.293,21.252C3.579,21.761 2.63,21.061 2.906,20.228L4.885,14.25C5.01,13.872 4.874,13.457 4.55,13.227L-0.613,9.545C-1.332,9.032 -0.97,7.899 -0.087,7.899L6.332,7.899C6.723,7.899 7.07,7.649 7.193,7.277L9.188,1.252Z" clip-rule="evenodd" fill-rule="evenodd" fill="#FFDB1F"/>
</svg>
