<svg width="24" height="24" viewBox="0 0 24 24" fill="none" xmlns="http://www.w3.org/2000/svg" xmlns:xlink="http://www.w3.org/1999/xlink">
<path d="M10.271,1.137C10.559,0.192 11.896,0.192 12.184,1.137L14.121,7.488C14.25,7.909 14.638,8.197 15.078,8.197L21.474,8.197C22.428,8.197 22.84,9.404 22.086,9.988L16.805,14.076C16.476,14.33 16.339,14.761 16.46,15.159L18.452,21.689C18.736,22.622 17.654,23.368 16.883,22.771L11.84,18.867C11.479,18.588 10.976,18.588 10.616,18.867L5.573,22.771C4.802,23.368 3.72,22.621 4.004,21.689L5.995,15.159C6.117,14.761 5.98,14.33 5.651,14.076L0.369,9.988C-0.385,9.404 0.028,8.197 0.981,8.197L7.378,8.197C7.818,8.197 8.206,7.909 8.334,7.488L10.271,1.137Z" clip-rule="evenodd" fill-rule="evenodd" fill="#FFC41F"/>
</svg>
