<svg width="22" height="22" viewBox="0 0 22 22" fill="none" xmlns="http://www.w3.org/2000/svg" xmlns:xlink="http://www.w3.org/1999/xlink">
<path d="M9.619,1.252C9.894,0.422 11.067,0.422 11.342,1.252L13.337,7.277C13.46,7.649 13.807,7.899 14.198,7.899L20.617,7.899C21.5,7.899 21.862,9.032 21.143,9.545L15.98,13.227C15.656,13.457 15.52,13.872 15.645,14.25L17.625,20.228C17.9,21.061 16.951,21.761 16.237,21.252L11.007,17.523C10.692,17.298 10.269,17.298 9.954,17.523L4.724,21.252C4.01,21.761 3.061,21.061 3.337,20.228L5.316,14.25C5.441,13.872 5.306,13.457 4.982,13.227L-0.182,9.545C-0.901,9.032 -0.539,7.899 0.344,7.899L6.763,7.899C7.154,7.899 7.501,7.649 7.624,7.277L9.619,1.252Z" clip-rule="evenodd" fill-rule="evenodd" fill="#FFDB1F"/>
</svg>
