<svg width="22" height="22" viewBox="0 0 22 22" fill="none" xmlns="http://www.w3.org/2000/svg" xmlns:xlink="http://www.w3.org/1999/xlink">
<path d="M10.051,1.252C10.325,0.422 11.498,0.422 11.773,1.252L13.768,7.277C13.891,7.649 14.238,7.899 14.629,7.899L21.048,7.899C21.931,7.899 22.293,9.032 21.575,9.545L16.411,13.227C16.087,13.457 15.952,13.872 16.077,14.25L18.056,20.228C18.332,21.061 17.383,21.761 16.668,21.252L11.438,17.523C11.123,17.298 10.7,17.298 10.385,17.523L5.155,21.252C4.441,21.761 3.492,21.061 3.768,20.228L5.747,14.25C5.872,13.872 5.737,13.457 5.413,13.227L0.249,9.545C-0.47,9.032 -0.107,7.899 0.775,7.899L7.194,7.899C7.586,7.899 7.933,7.649 8.056,7.277L10.051,1.252Z" clip-rule="evenodd" fill-rule="evenodd" fill="#FFDB1F"/>
</svg>
