<svg width="24" height="24" viewBox="0 0 24 24" fill="none" xmlns="http://www.w3.org/2000/svg" xmlns:xlink="http://www.w3.org/1999/xlink">
<path d="M10.216,1.137C10.504,0.192 11.841,0.192 12.129,1.137L14.066,7.488C14.194,7.909 14.582,8.197 15.022,8.197L21.419,8.197C22.372,8.197 22.785,9.404 22.031,9.988L16.749,14.076C16.421,14.33 16.284,14.761 16.405,15.159L18.396,21.689C18.681,22.622 17.599,23.368 16.828,22.771L11.784,18.867C11.424,18.588 10.92,18.588 10.56,18.867L5.517,22.771C4.746,23.368 3.664,22.621 3.948,21.689L5.94,15.159C6.061,14.761 5.924,14.33 5.595,14.076L0.313,9.988C-0.44,9.404 -0.028,8.197 0.926,8.197L7.322,8.197C7.762,8.197 8.15,7.909 8.278,7.488L10.216,1.137Z" clip-rule="evenodd" fill-rule="evenodd" fill="#FFC41F"/>
</svg>
