<svg width="24" height="24" viewBox="0 0 24 24" fill="none" xmlns="http://www.w3.org/2000/svg" xmlns:xlink="http://www.w3.org/1999/xlink">
<path d="M10.243,1.137C10.531,0.192 11.868,0.192 12.156,1.137L14.093,7.488C14.222,7.909 14.61,8.197 15.05,8.197L21.446,8.197C22.4,8.197 22.812,9.404 22.059,9.988L16.777,14.076C16.449,14.33 16.311,14.761 16.433,15.159L18.424,21.689C18.708,22.622 17.626,23.368 16.855,22.771L11.812,18.867C11.452,18.588 10.948,18.588 10.588,18.867L5.545,22.771C4.774,23.368 3.692,22.621 3.976,21.689L5.968,15.159C6.089,14.761 5.952,14.33 5.623,14.076L0.341,9.988C-0.413,9.404 0,8.197 0.953,8.197L7.35,8.197C7.79,8.197 8.178,7.909 8.306,7.488L10.243,1.137Z" clip-rule="evenodd" fill-rule="evenodd" fill="#FFC41F"/>
</svg>
