<svg width="24" height="22" viewBox="0 0 24 22" fill="none" xmlns="http://www.w3.org/2000/svg" xmlns:xlink="http://www.w3.org/1999/xlink">
<path d="M10.482,1.252C10.756,0.422 11.929,0.422 12.204,1.252L14.199,7.277C14.322,7.649 14.669,7.899 15.06,7.899L21.479,7.899C22.362,7.899 22.724,9.032 22.006,9.545L16.842,13.227C16.518,13.457 16.383,13.872 16.508,14.25L18.487,20.228C18.763,21.061 17.814,21.761 17.1,21.252L11.869,17.523C11.554,17.298 11.131,17.298 10.816,17.523L5.587,21.252C4.873,21.761 3.923,21.061 4.199,20.228L6.178,14.25C6.303,13.872 6.168,13.457 5.844,13.227L0.68,9.545C-0.039,9.032 0.324,7.899 1.207,7.899L7.626,7.899C8.017,7.899 8.364,7.649 8.487,7.277L10.482,1.252Z" clip-rule="evenodd" fill-rule="evenodd" fill="#FFDB1F"/>
</svg>
