<svg width="24" height="24" viewBox="0 0 24 24" fill="none" xmlns="http://www.w3.org/2000/svg" xmlns:xlink="http://www.w3.org/1999/xlink">
<path d="M10.299,1.137C10.587,0.192 11.924,0.192 12.212,1.137L14.149,7.488C14.277,7.909 14.665,8.197 15.105,8.197L21.502,8.197C22.455,8.197 22.868,9.404 22.114,9.988L16.832,14.076C16.504,14.33 16.367,14.761 16.488,15.159L18.479,21.689C18.764,22.622 17.682,23.368 16.911,22.771L11.867,18.867C11.507,18.588 11.004,18.588 10.643,18.867L5.6,22.771C4.829,23.368 3.747,22.621 4.032,21.689L6.023,15.159C6.144,14.761 6.007,14.33 5.679,14.076L0.397,9.988C-0.357,9.404 0.055,8.197 1.009,8.197L7.405,8.197C7.845,8.197 8.233,7.909 8.362,7.488L10.299,1.137Z" clip-rule="evenodd" fill-rule="evenodd" fill="#FFC41F"/>
</svg>
