<svg width="24" height="22" viewBox="0 0 24 22" fill="none" xmlns="http://www.w3.org/2000/svg" xmlns:xlink="http://www.w3.org/1999/xlink">
<path d="M10.757,1.252C11.032,0.422 12.205,0.422 12.479,1.252L14.474,7.277C14.597,7.649 14.944,7.899 15.335,7.899L21.755,7.899C22.637,7.899 23,9.032 22.281,9.545L17.118,13.227C16.794,13.457 16.658,13.872 16.783,14.25L18.762,20.228C19.038,21.061 18.089,21.761 17.375,21.252L12.145,17.523C11.83,17.298 11.407,17.298 11.092,17.523L5.862,21.252C5.148,21.761 4.199,21.061 4.474,20.228L6.454,14.25C6.579,13.872 6.443,13.457 6.119,13.227L0.955,9.545C0.237,9.032 0.599,7.899 1.482,7.899L7.901,7.899C8.292,7.899 8.639,7.649 8.762,7.277L10.757,1.252Z" clip-rule="evenodd" fill-rule="evenodd" fill="#979797"/>
</svg>
