<svg width="24" height="24" viewBox="0 0 24 24" fill="none" xmlns="http://www.w3.org/2000/svg" xmlns:xlink="http://www.w3.org/1999/xlink">
<path d="M10.327,1.137C10.615,0.192 11.952,0.192 12.24,1.137L14.177,7.488C14.305,7.909 14.693,8.197 15.133,8.197L21.53,8.197C22.483,8.197 22.896,9.404 22.142,9.988L16.86,14.076C16.532,14.33 16.395,14.761 16.516,15.159L18.507,21.689C18.792,22.622 17.71,23.368 16.939,22.771L11.895,18.867C11.535,18.588 11.031,18.588 10.671,18.867L5.628,22.771C4.857,23.368 3.775,22.621 4.059,21.689L6.051,15.159C6.172,14.761 6.035,14.33 5.706,14.076L0.425,9.988C-0.329,9.404 0.083,8.197 1.037,8.197L7.433,8.197C7.873,8.197 8.261,7.909 8.39,7.488L10.327,1.137Z" clip-rule="evenodd" fill-rule="evenodd" fill="#979797"/>
</svg>
