<svg width="32" height="30" viewBox="0 0 32 30" fill="none" xmlns="http://www.w3.org/2000/svg" xmlns:xlink="http://www.w3.org/1999/xlink">
<path d="M18.154,1.418C18.195,1.271 18.267,1.132 18.366,1.011C18.464,0.889 18.588,0.788 18.729,0.712C18.869,0.636 19.025,0.588 19.186,0.569C19.347,0.551 19.51,0.563 19.666,0.604C21.967,1.186 24.065,2.327 25.749,3.914C27.434,5.501 28.645,7.477 29.262,9.644C29.306,9.791 29.319,9.945 29.3,10.097C29.28,10.248 29.228,10.395 29.148,10.527C29.067,10.66 28.96,10.776 28.831,10.869C28.702,10.962 28.555,11.03 28.398,11.069C28.293,11.097 28.184,11.112 28.074,11.112C27.802,11.111 27.538,11.024 27.323,10.867C27.108,10.709 26.954,10.489 26.886,10.24C26.373,8.47 25.379,6.857 24.002,5.56C22.625,4.263 20.912,3.326 19.034,2.843C18.875,2.806 18.726,2.739 18.596,2.647C18.466,2.554 18.356,2.438 18.274,2.306C18.192,2.173 18.139,2.026 18.119,1.873C18.098,1.721 18.11,1.566 18.154,1.418ZM17.753,7.333C18.797,7.603 19.749,8.124 20.515,8.845C21.28,9.566 21.833,10.463 22.119,11.446C22.185,11.696 22.338,11.918 22.553,12.076C22.768,12.234 23.034,12.319 23.307,12.318C23.412,12.319 23.516,12.305 23.616,12.275C23.774,12.238 23.923,12.171 24.053,12.079C24.184,11.987 24.293,11.871 24.375,11.738C24.457,11.605 24.51,11.458 24.53,11.306C24.551,11.153 24.539,10.999 24.495,10.851C24.105,9.469 23.335,8.209 22.262,7.199C21.189,6.188 19.852,5.462 18.386,5.095C18.225,5.04 18.053,5.017 17.882,5.028C17.711,5.038 17.544,5.082 17.392,5.157C17.241,5.231 17.107,5.335 17,5.461C16.893,5.587 16.814,5.733 16.77,5.889C16.726,6.045 16.717,6.208 16.744,6.367C16.77,6.526 16.831,6.679 16.924,6.815C17.016,6.951 17.138,7.067 17.28,7.156C17.423,7.246 17.584,7.306 17.753,7.333ZM30.481,21.358C30.208,23.321 29.188,25.123 27.61,26.43C26.032,27.738 24.004,28.461 21.903,28.465C9.653,28.465 -0.313,19.077 -0.313,7.537C-0.308,5.558 0.459,3.647 1.847,2.161C3.234,0.674 5.148,-0.287 7.231,-0.544C7.762,-0.599 8.298,-0.494 8.762,-0.243C9.225,0.008 9.591,0.391 9.808,0.852L12.909,7.668C13.07,8.022 13.134,8.408 13.096,8.791C13.059,9.174 12.92,9.542 12.693,9.862L10.132,13.554C11.291,15.771 13.202,17.561 15.562,18.641L19.435,16.213C19.774,15.998 20.166,15.868 20.573,15.835C20.981,15.801 21.391,15.867 21.764,16.024L29,18.931C29.488,19.135 29.895,19.48 30.162,19.916C30.428,20.353 30.54,20.858 30.481,21.358ZM28.028,21.068L20.792,18.161L16.935,20.588C16.58,20.809 16.171,20.94 15.747,20.968C15.322,20.996 14.897,20.92 14.513,20.748C11.639,19.438 9.314,17.258 7.91,14.557C7.725,14.196 7.642,13.796 7.669,13.397C7.696,12.997 7.832,12.61 8.064,12.275L10.641,8.583L7.54,1.767C6.051,1.947 4.683,2.633 3.692,3.695C2.701,4.757 2.154,6.123 2.155,7.537C2.16,12.47 4.241,17.199 7.944,20.687C11.646,24.175 16.667,26.136 21.903,26.14C23.404,26.141 24.854,25.626 25.982,24.692C27.109,23.759 27.837,22.47 28.028,21.068Z" fill="#FFFFFF"/>
</svg>
