<svg width="26" height="30" viewBox="0 0 26 30" fill="none" xmlns="http://www.w3.org/2000/svg" xmlns:xlink="http://www.w3.org/1999/xlink">
<path d="M6.79,-0.806C8.488,-1.025 9.916,-0.047 10.592,1.224L12.255,4.353C13.177,6.089 12.647,8.126 11.249,9.408C10.423,10.164 9.593,11.028 9.112,11.791C9.08,11.845 9.07,11.909 9.084,11.969C9.529,14.239 11.163,16.482 12.621,18.09C12.695,18.167 12.79,18.221 12.897,18.247C13.003,18.273 13.115,18.269 13.218,18.235L16.495,17.272C17.377,17.012 18.325,17.025 19.199,17.309C20.073,17.594 20.828,18.134 21.352,18.851L23.723,22.097C24.366,22.978 24.692,24.173 24.199,25.321C23.759,26.348 22.907,27.828 21.358,28.812C19.751,29.833 17.549,30.221 14.668,29.292C11.449,28.252 8.408,25.646 5.887,22.312C3.351,18.958 1.263,14.768 -0.003,10.399C-1.2,6.274 -0.477,3.497 1.222,1.709C2.862,-0.017 5.211,-0.602 6.79,-0.806ZM8.749,2.092C8.372,1.383 7.7,1.034 7.07,1.115C5.668,1.297 3.912,1.788 2.759,3.002C1.666,4.152 0.909,6.178 1.984,9.889C3.191,14.053 5.18,18.033 7.566,21.187C9.967,24.363 12.696,26.605 15.337,27.457C17.69,28.217 19.203,27.841 20.205,27.205C21.265,26.531 21.917,25.46 22.288,24.595C22.458,24.2 22.384,23.688 22.025,23.196L19.654,19.95C19.379,19.575 18.984,19.292 18.526,19.143C18.069,18.994 17.572,18.987 17.11,19.123L13.833,20.086C12.854,20.374 11.751,20.117 11.054,19.349C9.537,17.676 7.603,15.11 7.057,12.321C6.952,11.798 7.053,11.258 7.34,10.8C7.965,9.811 8.954,8.804 9.811,8.018C10.647,7.252 10.885,6.112 10.412,5.22L8.749,2.092Z" fill="#FFFFFF"/>
</svg>
