<svg width="18" height="38" viewBox="0 0 18 38" fill="none" xmlns="http://www.w3.org/2000/svg" xmlns:xlink="http://www.w3.org/1999/xlink">
<path d="M13.657,35.529C14.59,36.547 16.172,36.616 17.189,35.683C18.207,34.75 18.276,33.168 17.343,32.151L13.657,35.529ZM3.547,20.8L5.39,19.111L3.547,20.8ZM3.547,15.2L5.39,16.889L3.547,15.2ZM17.343,3.849C18.276,2.831 18.207,1.25 17.189,0.317C16.172,-0.616 14.59,-0.547 13.657,0.471L17.343,3.849ZM17.343,32.151L5.39,19.111L1.704,22.489L13.657,35.529L17.343,32.151ZM5.39,19.111C4.854,18.526 4.854,17.473 5.39,16.889L1.704,13.511C-0.584,16.006 -0.584,19.993 1.704,22.489L5.39,19.111ZM5.39,16.889L17.343,3.849L13.657,0.471L1.704,13.511L5.39,16.889Z" fill="#151B33"/>
</svg>
