<svg width="22" height="30" viewBox="0 0 22 30" fill="none" xmlns="http://www.w3.org/2000/svg" xmlns:xlink="http://www.w3.org/1999/xlink">
<path d="M10.591,0C4.736,0 0,4.461 0,9.977C0,17.459 10.591,28.505 10.591,28.505C10.591,28.505 21.181,17.459 21.181,9.977C21.181,4.461 16.446,0 10.591,0ZM10.591,13.54C9.588,13.54 8.625,13.164 7.916,12.496C7.207,11.828 6.808,10.922 6.808,9.977C6.808,9.032 7.207,8.125 7.916,7.457C8.625,6.789 9.588,6.414 10.591,6.414C11.594,6.414 12.556,6.789 13.265,7.457C13.975,8.125 14.373,9.032 14.373,9.977C14.373,10.922 13.975,11.828 13.265,12.496C12.556,13.164 11.594,13.54 10.591,13.54Z" fill="#FFFFFF"/>
</svg>
