<svg width="38" height="38" viewBox="0 0 38 38" fill="none" xmlns="http://www.w3.org/2000/svg" xmlns:xlink="http://www.w3.org/1999/xlink">
<path d="M22.748,13.131C22.162,13.717 22.162,14.667 22.748,15.252C23.333,15.838 24.283,15.838 24.869,15.252L22.748,13.131ZM33.661,6.461C34.246,5.875 34.246,4.925 33.661,4.339C33.075,3.754 32.125,3.754 31.539,4.339L33.661,6.461ZM4.339,31.539C3.754,32.125 3.754,33.075 4.339,33.661C4.925,34.246 5.875,34.246 6.461,33.661L4.339,31.539ZM15.252,24.869C15.838,24.283 15.838,23.333 15.252,22.748C14.667,22.162 13.717,22.162 13.131,22.748L15.252,24.869ZM24.869,22.748C24.283,22.162 23.333,22.162 22.748,22.748C22.162,23.333 22.162,24.283 22.748,24.869L24.869,22.748ZM31.539,33.661C32.125,34.246 33.075,34.246 33.661,33.661C34.246,33.075 34.246,32.125 33.661,31.539L31.539,33.661ZM6.461,4.339C5.875,3.754 4.925,3.754 4.339,4.339C3.754,4.925 3.754,5.875 4.339,6.461L6.461,4.339ZM13.131,15.252C13.717,15.838 14.667,15.838 15.252,15.252C15.838,14.667 15.838,13.717 15.252,13.131L13.131,15.252ZM12.2,3.5L25.8,3.5L25.8,0.5L12.2,0.5L12.2,3.5ZM34.5,12.2L34.5,25.8L37.5,25.8L37.5,12.2L34.5,12.2ZM25.8,34.5L12.2,34.5L12.2,37.5L25.8,37.5L25.8,34.5ZM3.5,25.8L3.5,12.2L0.5,12.2L0.5,25.8L3.5,25.8ZM12.2,34.5C7.395,34.5 3.5,30.605 3.5,25.8L0.5,25.8C0.5,32.262 5.738,37.5 12.2,37.5L12.2,34.5ZM34.5,25.8C34.5,30.605 30.605,34.5 25.8,34.5L25.8,37.5C32.262,37.5 37.5,32.262 37.5,25.8L34.5,25.8ZM25.8,3.5C30.605,3.5 34.5,7.395 34.5,12.2L37.5,12.2C37.5,5.738 32.262,0.5 25.8,0.5L25.8,3.5ZM12.2,0.5C5.738,0.5 0.5,5.738 0.5,12.2L3.5,12.2C3.5,7.395 7.395,3.5 12.2,3.5L12.2,0.5ZM24.3,19C24.3,21.927 21.927,24.3 19,24.3L19,27.3C23.584,27.3 27.3,23.584 27.3,19L24.3,19ZM19,24.3C16.073,24.3 13.7,21.927 13.7,19L10.7,19C10.7,23.584 14.416,27.3 19,27.3L19,24.3ZM13.7,19C13.7,16.073 16.073,13.7 19,13.7L19,10.7C14.416,10.7 10.7,14.416 10.7,19L13.7,19ZM19,13.7C21.927,13.7 24.3,16.073 24.3,19L27.3,19C27.3,14.416 23.584,10.7 19,10.7L19,13.7ZM24.869,15.252L33.661,6.461L31.539,4.339L22.748,13.131L24.869,15.252ZM6.461,33.661L15.252,24.869L13.131,22.748L4.339,31.539L6.461,33.661ZM22.748,24.869L31.539,33.661L33.661,31.539L24.869,22.748L22.748,24.869ZM4.339,6.461L13.131,15.252L15.252,13.131L6.461,4.339L4.339,6.461Z" fill="#28303F"/>
</svg>
