<svg width="48" height="48" viewBox="0 0 48 48" fill="none" xmlns="http://www.w3.org/2000/svg" xmlns:xlink="http://www.w3.org/1999/xlink">
<path d="M39.969,0.047L8.031,0.047C3.64,0.047 0.047,3.64 0.047,8.031L0.047,39.969C0.047,44.36 3.64,47.953 8.031,47.953L39.969,47.953C44.36,47.953 47.953,44.36 47.953,39.969L47.953,8.031C47.953,3.64 44.36,0.047 39.969,0.047ZM25.157,10.394C26.346,8.944 28.386,7.832 30.129,7.71C30.424,9.696 29.614,11.631 28.547,13C27.403,14.47 25.435,15.611 23.531,15.551C23.183,13.657 24.079,11.707 25.157,10.394ZM35.862,35.566C34.486,37.657 32.553,40.263 30.157,40.283C28.026,40.304 27.478,38.895 24.586,38.91C21.699,38.925 21.093,40.31 18.96,40.289C16.566,40.269 14.733,37.914 13.358,35.822C10.529,31.513 9.581,26.661 10.216,22.934C10.444,21.606 10.864,20.414 11.483,19.454C13.167,16.858 15.823,15.337 18.317,15.337C20.861,15.337 22.455,16.736 24.557,16.736C26.596,16.736 27.838,15.337 30.775,15.337C32.995,15.337 35.347,16.551 37.022,18.642C35.364,19.555 34.296,20.909 33.757,22.414C32.508,25.885 34.1,30.151 37.973,31.611C37.211,33.308 36.84,34.066 35.862,35.566Z" fill="#000000"/>
</svg>
