<svg width="36" height="36" viewBox="0 0 36 36" fill="none" xmlns="http://www.w3.org/2000/svg" xmlns:xlink="http://www.w3.org/1999/xlink">
<path d="M17.093,1.829L17.84,0.956C17.632,0.778 17.367,0.68 17.093,0.68C16.819,0.68 16.554,0.778 16.346,0.956L17.093,1.829ZM1.009,15.615L0.262,14.742L-0.14,15.087L-0.14,15.615L1.009,15.615ZM12.498,33.996L12.498,35.145C12.802,35.145 13.094,35.024 13.31,34.809C13.525,34.593 13.646,34.301 13.646,33.996L12.498,33.996ZM21.688,33.996L20.539,33.996C20.539,34.301 20.661,34.593 20.876,34.809C21.091,35.024 21.384,35.145 21.688,35.145L21.688,33.996ZM33.177,15.615L34.326,15.615L34.326,15.087L33.923,14.742L33.177,15.615ZM3.307,35.145L12.498,35.145L12.498,32.848L3.307,32.848L3.307,35.145ZM33.923,14.742L17.84,0.956L16.346,2.702L32.43,16.488L33.923,14.742ZM16.346,0.956L0.262,14.742L1.756,16.488L17.84,2.702L16.346,0.956ZM13.646,33.996L13.646,27.103L11.349,27.103L11.349,33.996L13.646,33.996ZM20.539,27.103L20.539,33.996L22.837,33.996L22.837,27.103L20.539,27.103ZM21.688,35.145L30.879,35.145L30.879,32.848L21.688,32.848L21.688,35.145ZM34.326,31.699L34.326,15.615L32.028,15.615L32.028,31.699L34.326,31.699ZM-0.14,15.615L-0.14,31.699L2.158,31.699L2.158,15.615L-0.14,15.615ZM17.093,23.657C18.007,23.657 18.884,24.02 19.53,24.666C20.176,25.313 20.539,26.189 20.539,27.103L22.837,27.103C22.837,25.58 22.232,24.119 21.155,23.042C20.077,21.964 18.616,21.359 17.093,21.359L17.093,23.657ZM17.093,21.359C15.569,21.359 14.108,21.964 13.031,23.042C11.954,24.119 11.349,25.58 11.349,27.103L13.646,27.103C13.646,26.189 14.01,25.313 14.656,24.666C15.302,24.02 16.179,23.657 17.093,23.657L17.093,21.359ZM30.879,35.145C31.793,35.145 32.67,34.782 33.316,34.136C33.962,33.49 34.326,32.613 34.326,31.699L32.028,31.699C32.028,32.004 31.907,32.296 31.691,32.511C31.476,32.727 31.184,32.848 30.879,32.848L30.879,35.145ZM3.307,32.848C3.002,32.848 2.71,32.727 2.495,32.511C2.279,32.296 2.158,32.004 2.158,31.699L-0.14,31.699C-0.14,32.613 0.223,33.49 0.87,34.136C1.516,34.782 2.393,35.145 3.307,35.145L3.307,32.848Z" fill="#FFFFFF"/>
</svg>
