<svg width="20" height="20" viewBox="0 0 20 20" fill="none" xmlns="http://www.w3.org/2000/svg" xmlns:xlink="http://www.w3.org/1999/xlink">
<path d="M9.761,15.626L5.26,18.477C5.062,18.61 4.854,18.667 4.637,18.648C4.42,18.629 4.23,18.553 4.068,18.42C3.905,18.287 3.778,18.121 3.688,17.922C3.598,17.722 3.58,17.498 3.634,17.251L4.827,11.862L0.841,8.241C0.661,8.07 0.548,7.874 0.503,7.656C0.457,7.437 0.471,7.224 0.543,7.015C0.615,6.805 0.724,6.634 0.868,6.501C1.013,6.368 1.212,6.283 1.465,6.245L6.724,5.76L8.758,0.684C8.848,0.456 8.988,0.285 9.179,0.171C9.368,0.057 9.562,0 9.761,0C9.96,0 10.154,0.057 10.344,0.171C10.534,0.285 10.674,0.456 10.764,0.684L12.797,5.76L18.057,6.245C18.31,6.283 18.509,6.368 18.653,6.501C18.798,6.634 18.906,6.805 18.979,7.015C19.051,7.224 19.065,7.437 19.02,7.656C18.974,7.874 18.861,8.07 18.68,8.241L14.695,11.862L15.888,17.251C15.942,17.498 15.924,17.722 15.834,17.922C15.743,18.121 15.617,18.287 15.454,18.42C15.292,18.553 15.102,18.629 14.885,18.648C14.668,18.667 14.46,18.61 14.261,18.477L9.761,15.626Z" fill="#F18231"/>
</svg>
