<svg width="18" height="20" viewBox="0 0 18 20" fill="none" xmlns="http://www.w3.org/2000/svg" xmlns:xlink="http://www.w3.org/1999/xlink">
<path d="M8.644,15.626L4.143,18.477C3.944,18.61 3.737,18.667 3.52,18.648C3.303,18.629 3.113,18.553 2.95,18.42C2.788,18.287 2.661,18.121 2.571,17.922C2.48,17.722 2.462,17.498 2.517,17.251L3.709,11.862L-0.276,8.241C-0.457,8.07 -0.569,7.874 -0.614,7.656C-0.66,7.437 -0.646,7.224 -0.574,7.015C-0.502,6.805 -0.393,6.634 -0.249,6.501C-0.104,6.368 0.095,6.283 0.348,6.245L5.607,5.76L7.641,0.684C7.731,0.456 7.871,0.285 8.061,0.171C8.251,0.057 8.445,0 8.644,0C8.842,0 9.037,0.057 9.227,0.171C9.417,0.285 9.556,0.456 9.647,0.684L11.68,5.76L16.94,6.245C17.193,6.283 17.392,6.368 17.536,6.501C17.681,6.634 17.789,6.805 17.861,7.015C17.934,7.224 17.947,7.437 17.903,7.656C17.857,7.874 17.744,8.07 17.563,8.241L13.578,11.862L14.771,17.251C14.825,17.498 14.807,17.722 14.717,17.922C14.626,18.121 14.5,18.287 14.337,18.42C14.174,18.553 13.985,18.629 13.768,18.648C13.551,18.667 13.343,18.61 13.144,18.477L8.644,15.626Z" fill="#F18231"/>
</svg>
