<svg width="28" height="30" viewBox="0 0 28 30" fill="none" xmlns="http://www.w3.org/2000/svg" xmlns:xlink="http://www.w3.org/1999/xlink">
<path d="M-0.592,28.465L-0.592,4.884C-0.592,3.44 -0.06,2.056 0.888,1.036C1.836,0.015 3.122,-0.558 4.462,-0.558L21.311,-0.558C22.652,-0.558 23.937,0.015 24.885,1.036C25.833,2.056 26.366,3.44 26.366,4.884L26.366,15.767C26.366,17.211 25.833,18.595 24.885,19.615C23.937,20.636 22.652,21.209 21.311,21.209L6.147,21.209L-0.592,28.465ZM6.147,6.698L19.626,6.698ZM6.147,13.954L16.256,13.954Z" transform="rotate(360 12.887 13.954)" fill="#F18231" stroke="#FFFFFF" stroke-width="1.814" stroke-miterlimit="3.999327" stroke-linecap="round" stroke-linejoin="round"/>
</svg>
