<svg width="20" height="20" viewBox="0 0 20 20" fill="none" xmlns="http://www.w3.org/2000/svg" xmlns:xlink="http://www.w3.org/1999/xlink">
<path d="M9.284,15.626L4.784,18.477C4.585,18.61 4.377,18.667 4.16,18.648C3.943,18.629 3.754,18.553 3.591,18.42C3.428,18.287 3.302,18.121 3.211,17.922C3.121,17.722 3.103,17.498 3.157,17.251L4.35,11.862L0.365,8.241C0.184,8.07 0.071,7.874 0.026,7.656C-0.019,7.437 -0.006,7.224 0.067,7.015C0.139,6.805 0.247,6.634 0.392,6.501C0.536,6.368 0.735,6.283 0.988,6.245L6.248,5.76L8.281,0.684C8.372,0.456 8.512,0.285 8.702,0.171C8.891,0.057 9.085,0 9.284,0C9.483,0 9.678,0.057 9.868,0.171C10.057,0.285 10.197,0.456 10.287,0.684L12.321,5.76L17.58,6.245C17.833,6.283 18.032,6.368 18.177,6.501C18.321,6.634 18.43,6.805 18.502,7.015C18.574,7.224 18.588,7.437 18.543,7.656C18.498,7.874 18.385,8.07 18.204,8.241L14.219,11.862L15.411,17.251C15.466,17.498 15.448,17.722 15.357,17.922C15.267,18.121 15.14,18.287 14.978,18.42C14.815,18.553 14.625,18.629 14.408,18.648C14.191,18.667 13.984,18.61 13.785,18.477L9.284,15.626Z" fill="#F18231"/>
</svg>
