<svg width="20" height="20" viewBox="0 0 20 20" fill="none" xmlns="http://www.w3.org/2000/svg" xmlns:xlink="http://www.w3.org/1999/xlink">
<path d="M9.519,15.626L5.018,18.477C4.819,18.61 4.612,18.667 4.395,18.648C4.178,18.629 3.988,18.553 3.825,18.42C3.663,18.287 3.536,18.121 3.446,17.922C3.355,17.722 3.337,17.498 3.392,17.251L4.584,11.862L0.599,8.241C0.418,8.07 0.306,7.874 0.261,7.656C0.215,7.437 0.229,7.224 0.301,7.015C0.373,6.805 0.482,6.634 0.626,6.501C0.771,6.368 0.97,6.283 1.223,6.245L6.482,5.76L8.516,0.684C8.606,0.456 8.746,0.285 8.936,0.171C9.126,0.057 9.32,0 9.519,0C9.717,0 9.912,0.057 10.102,0.171C10.292,0.285 10.431,0.456 10.522,0.684L12.555,5.76L17.815,6.245C18.068,6.283 18.267,6.368 18.411,6.501C18.556,6.634 18.664,6.805 18.736,7.015C18.809,7.224 18.822,7.437 18.778,7.656C18.732,7.874 18.619,8.07 18.438,8.241L14.453,11.862L15.646,17.251C15.7,17.498 15.682,17.722 15.592,17.922C15.501,18.121 15.375,18.287 15.212,18.42C15.049,18.553 14.86,18.629 14.643,18.648C14.426,18.667 14.218,18.61 14.019,18.477L9.519,15.626Z" fill="#F18231"/>
</svg>
