<svg width="34" height="38" viewBox="0 0 34 38" fill="none" xmlns="http://www.w3.org/2000/svg" xmlns:xlink="http://www.w3.org/1999/xlink">
<path d="M6.31,11.333C6.31,10.242 5.425,9.357 4.333,9.357C3.242,9.357 2.357,10.242 2.357,11.333L6.31,11.333ZM29.643,11.333C29.643,10.242 28.758,9.357 27.667,9.357C26.575,9.357 25.69,10.242 25.69,11.333L29.643,11.333ZM21.31,16.333C21.31,15.242 20.425,14.357 19.333,14.357C18.242,14.357 17.357,15.242 17.357,16.333L21.31,16.333ZM17.357,26.333C17.357,27.425 18.242,28.31 19.333,28.31C20.425,28.31 21.31,27.425 21.31,26.333L17.357,26.333ZM14.643,16.333C14.643,15.242 13.758,14.357 12.667,14.357C11.575,14.357 10.69,15.242 10.69,16.333L14.643,16.333ZM10.69,26.333C10.69,27.425 11.575,28.31 12.667,28.31C13.758,28.31 14.643,27.425 14.643,26.333L10.69,26.333ZM31,8.31C32.092,8.31 32.977,7.425 32.977,6.333C32.977,5.242 32.092,4.357 31,4.357L31,8.31ZM1,4.357C-0.092,4.357 -0.977,5.242 -0.977,6.333C-0.977,7.425 -0.092,8.31 1,8.31L1,4.357ZM20.323,2.818L18.678,3.914L18.678,3.914L20.323,2.818ZM11.677,2.818L10.032,1.721L10.032,1.721L11.677,2.818ZM11,36.643L21,36.643L21,32.69L11,32.69L11,36.643ZM2.357,11.333L2.357,28L6.31,28L6.31,11.333L2.357,11.333ZM29.643,28L29.643,11.333L25.69,11.333L25.69,28L29.643,28ZM21,36.643C25.774,36.643 29.643,32.773 29.643,28L25.69,28C25.69,30.59 23.59,32.69 21,32.69L21,36.643ZM11,32.69C8.41,32.69 6.31,30.59 6.31,28L2.357,28C2.357,32.773 6.226,36.643 11,36.643L11,32.69ZM17.357,16.333L17.357,26.333L21.31,26.333L21.31,16.333L17.357,16.333ZM10.69,16.333L10.69,26.333L14.643,26.333L14.643,16.333L10.69,16.333ZM14.451,3.31L17.549,3.31L17.549,-0.643L14.451,-0.643L14.451,3.31ZM18.678,3.914L21.022,7.43L24.311,5.237L21.968,1.721L18.678,3.914ZM22.667,4.357L9.333,4.357L9.333,8.31L22.667,8.31L22.667,4.357ZM10.978,7.43L13.322,3.914L10.032,1.721L7.689,5.237L10.978,7.43ZM22.667,8.31L31,8.31L31,4.357L22.667,4.357L22.667,8.31ZM9.333,4.357L1,4.357L1,8.31L9.333,8.31L9.333,4.357ZM17.549,3.31C18.003,3.31 18.427,3.537 18.678,3.914L21.968,1.721C20.983,0.244 19.325,-0.643 17.549,-0.643L17.549,3.31ZM14.451,-0.643C12.675,-0.643 11.017,0.244 10.032,1.721L13.322,3.914C13.573,3.537 13.997,3.31 14.451,3.31L14.451,-0.643Z" fill="#F18231"/>
</svg>
