<svg width="18" height="20" viewBox="0 0 18 20" fill="none" xmlns="http://www.w3.org/2000/svg" xmlns:xlink="http://www.w3.org/1999/xlink">
<path d="M8.401,15.626L3.901,18.477C3.702,18.61 3.494,18.667 3.277,18.648C3.061,18.629 2.871,18.553 2.708,18.42C2.545,18.287 2.419,18.121 2.329,17.922C2.238,17.722 2.22,17.498 2.274,17.251L3.467,11.862L-0.518,8.241C-0.699,8.07 -0.812,7.874 -0.856,7.656C-0.902,7.437 -0.889,7.224 -0.816,7.015C-0.744,6.805 -0.636,6.634 -0.491,6.501C-0.346,6.368 -0.148,6.283 0.105,6.245L5.365,5.76L7.398,0.684C7.489,0.456 7.629,0.285 7.819,0.171C8.009,0.057 8.203,0 8.401,0C8.6,0 8.795,0.057 8.985,0.171C9.174,0.285 9.314,0.456 9.405,0.684L11.438,5.76L16.697,6.245C16.951,6.283 17.149,6.368 17.294,6.501C17.439,6.634 17.547,6.805 17.619,7.015C17.692,7.224 17.705,7.437 17.66,7.656C17.615,7.874 17.502,8.07 17.321,8.241L13.336,11.862L14.529,17.251C14.583,17.498 14.565,17.722 14.474,17.922C14.384,18.121 14.257,18.287 14.095,18.42C13.932,18.553 13.742,18.629 13.525,18.648C13.309,18.667 13.101,18.61 12.902,18.477L8.401,15.626Z" fill="#F18231"/>
</svg>
