<svg width="28" height="24" viewBox="0 0 28 24" fill="none" xmlns="http://www.w3.org/2000/svg" xmlns:xlink="http://www.w3.org/1999/xlink">
<path d="M13.126,5.215C17.084,5.215 20.891,6.918 23.76,9.971C23.976,10.207 24.321,10.204 24.534,9.965L26.599,7.631C26.706,7.51 26.766,7.346 26.766,7.174C26.765,7.003 26.703,6.839 26.594,6.719C19.064,-1.36 7.186,-1.36 -0.344,6.719C-0.453,6.839 -0.515,7.003 -0.516,7.174C-0.517,7.345 -0.457,7.51 -0.349,7.631L1.716,9.965C1.929,10.205 2.275,10.208 2.49,9.971C5.36,6.918 9.167,5.215 13.126,5.215ZM13.126,12.806C15.301,12.806 17.398,13.711 19.01,15.345C19.228,15.577 19.572,15.572 19.784,15.334L21.847,13.001C21.956,12.878 22.016,12.712 22.014,12.54C22.013,12.367 21.95,12.203 21.839,12.083C16.929,6.97 9.327,6.97 4.418,12.083C4.307,12.203 4.244,12.367 4.242,12.54C4.241,12.712 4.301,12.878 4.41,13.001L6.472,15.334C6.685,15.572 7.028,15.577 7.246,15.345C8.857,13.712 10.953,12.807 13.126,12.806ZM17.257,17.913C17.261,18.086 17.2,18.253 17.089,18.374L13.522,22.406C13.417,22.524 13.274,22.591 13.126,22.591C12.977,22.591 12.834,22.524 12.73,22.406L9.161,18.374C9.051,18.253 8.99,18.086 8.994,17.913C8.997,17.74 9.064,17.576 9.178,17.46C11.457,15.302 14.794,15.302 17.073,17.46C17.187,17.576 17.254,17.74 17.257,17.913Z" clip-rule="evenodd" fill-rule="evenodd" fill="#FFFFFF"/>
</svg>
